<?xml version="1.0" encoding="utf-8"?>
<!-- Generator: Adobe Illustrator 15.0.0, SVG Export Plug-In . SVG Version: 6.00 Build 0)  -->
<!DOCTYPE svg PUBLIC "-//W3C//DTD SVG 1.1//EN" "http://www.w3.org/Graphics/SVG/1.1/DTD/svg11.dtd">
<svg version="1.1"
	 id="svg8" inkscape:version="0.92.2 5c3e80d, 2017-08-06" sodipodi:docname="02.svg" xmlns:inkscape="http://www.inkscape.org/namespaces/inkscape" xmlns:sodipodi="http://sodipodi.sourceforge.net/DTD/sodipodi-0.dtd" xmlns:rdf="http://www.w3.org/1999/02/22-rdf-syntax-ns#" xmlns:svg="http://www.w3.org/2000/svg" xmlns:cc="http://creativecommons.org/ns#" xmlns:dc="http://purl.org/dc/elements/1.1/"
	 xmlns="http://www.w3.org/2000/svg" xmlns:xlink="http://www.w3.org/1999/xlink" x="0px" y="0px" width="301.947px"
	 height="184.314px" viewBox="0 0 301.947 184.314" enable-background="new 0 0 301.947 184.314" xml:space="preserve">
<sodipodi:namedview  pagecolor="#ffffff" objecttolerance="10" borderopacity="1" bordercolor="#666666" gridtolerance="10" guidetolerance="10" inkscape:pageopacity="0" inkscape:pageshadow="2" inkscape:window-width="1600" inkscape:window-height="876" id="namedview47" showgrid="false" inkscape:cy="128.733" inkscape:zoom="1.0490543" inkscape:cx="324.31168" inkscape:window-x="0" inkscape:window-y="1020" inkscape:window-maximized="1" inkscape:current-layer="svg8">
	</sodipodi:namedview>
<g id="text105">
	<path id="path1273" d="M47.137,47.759c-0.096,0-0.144-0.048-0.144-0.144V36.926c0-0.096,0.048-0.144,0.144-0.144h1.225
		c0.096,0,0.144,0.048,0.144,0.144v9.497h4.55c0.095,0,0.143,0.047,0.143,0.143v1.05c0,0.096-0.048,0.144-0.143,0.144H47.137z"/>
	<path id="path1275" d="M54.729,38.373c-0.043,0-0.08-0.011-0.111-0.031c-0.021-0.032-0.032-0.069-0.032-0.112v-1.304
		c0-0.043,0.011-0.074,0.032-0.096c0.032-0.032,0.069-0.048,0.111-0.048h1.32c0.096,0,0.144,0.048,0.144,0.144v1.304
		c0,0.096-0.048,0.144-0.144,0.144H54.729z M54.808,47.759c-0.042,0-0.079-0.011-0.111-0.032c-0.021-0.031-0.031-0.068-0.031-0.111
		v-7.858c0-0.042,0.011-0.074,0.031-0.095c0.032-0.032,0.069-0.048,0.111-0.048h1.178c0.085,0,0.127,0.048,0.127,0.143v7.858
		c0,0.096-0.042,0.144-0.127,0.144H54.808z"/>
	<path id="path1277" d="M62.87,47.933c-1.188,0-2.1-0.44-2.736-1.32v1.002c0,0.043-0.016,0.08-0.048,0.111
		c-0.021,0.021-0.053,0.032-0.095,0.032H58.83c-0.043,0-0.08-0.011-0.111-0.032c-0.021-0.031-0.032-0.068-0.032-0.111V36.926
		c0-0.043,0.011-0.074,0.032-0.096c0.031-0.032,0.068-0.048,0.111-0.048h1.177c0.042,0,0.074,0.016,0.096,0.048
		c0.031,0.021,0.048,0.053,0.048,0.096v3.85c0.625-0.881,1.537-1.32,2.735-1.32c1.156,0,2.031,0.393,2.625,1.177
		c0.604,0.774,0.907,1.792,0.907,3.055c0,1.272-0.303,2.301-0.907,3.086C64.917,47.547,64.037,47.933,62.87,47.933z M62.473,46.661
		c0.827,0,1.447-0.255,1.861-0.764c0.413-0.52,0.62-1.257,0.62-2.211c0-0.934-0.207-1.654-0.62-2.164
		c-0.414-0.52-1.034-0.779-1.861-0.779c-0.742,0-1.331,0.266-1.766,0.796c-0.425,0.53-0.637,1.246-0.637,2.147
		c0,0.923,0.212,1.648,0.637,2.179C61.142,46.395,61.731,46.661,62.473,46.661z"/>
	<path id="path1279" d="M68.43,47.759c-0.042,0-0.079-0.011-0.111-0.032c-0.021-0.031-0.031-0.068-0.031-0.111v-7.858
		c0-0.042,0.011-0.074,0.031-0.095c0.032-0.032,0.069-0.048,0.111-0.048h1.162c0.042,0,0.074,0.016,0.095,0.048
		c0.032,0.021,0.048,0.053,0.048,0.095v0.955c0.191-0.382,0.451-0.679,0.779-0.892c0.34-0.223,0.727-0.334,1.162-0.334
		c0.212,0,0.439,0.032,0.684,0.096c0.085,0.021,0.127,0.074,0.127,0.159v1.098c0,0.074-0.031,0.111-0.095,0.111h-0.111
		c-0.233-0.074-0.478-0.111-0.732-0.111c-0.562,0-1.002,0.212-1.32,0.637c-0.318,0.424-0.477,0.954-0.477,1.59v4.55
		c0,0.043-0.017,0.08-0.048,0.111c-0.021,0.021-0.054,0.032-0.096,0.032H68.43z"/>
	<path id="path1281" d="M76.765,39.455c1.22,0,2.11,0.402,2.673,1.209c0.562,0.795,0.843,1.766,0.843,2.911v0.413
		c-0.011,0.096-0.068,0.144-0.175,0.144h-5.679c0.053,0.806,0.28,1.437,0.684,1.893s0.965,0.685,1.687,0.685
		c0.572,0,1.034-0.133,1.384-0.397c0.35-0.276,0.572-0.663,0.668-1.162c0.021-0.095,0.074-0.143,0.159-0.143h0.954
		c0.117,0,0.165,0.068,0.144,0.207c-0.148,0.88-0.52,1.553-1.113,2.02c-0.594,0.456-1.305,0.685-2.132,0.685s-1.527-0.186-2.1-0.557
		c-0.573-0.382-1.008-0.892-1.305-1.527c-0.286-0.647-0.43-1.357-0.43-2.132s0.133-1.479,0.397-2.115
		c0.276-0.647,0.689-1.162,1.241-1.544C75.228,39.651,75.927,39.455,76.765,39.455L76.765,39.455z M76.734,40.679
		c-0.722,0-1.278,0.218-1.671,0.652c-0.382,0.424-0.599,0.991-0.652,1.702h4.502c-0.021-0.731-0.212-1.305-0.572-1.718
		C77.98,40.891,77.444,40.679,76.734,40.679z"/>
	<path id="path1283" d="M23.045,62.969c-1.029,0-1.92-0.228-2.673-0.684c-0.753-0.467-1.336-1.124-1.75-1.973
		c-0.403-0.849-0.604-1.845-0.604-2.99s0.201-2.143,0.604-2.991c0.414-0.848,0.997-1.5,1.75-1.956c0.753-0.467,1.644-0.7,2.673-0.7
		c1.028,0,1.919,0.233,2.672,0.7c0.753,0.456,1.331,1.108,1.734,1.956c0.413,0.849,0.62,1.846,0.62,2.991s-0.207,2.142-0.62,2.99
		c-0.403,0.849-0.981,1.506-1.734,1.973C24.964,62.742,24.073,62.969,23.045,62.969z M23.045,61.602c1.07,0,1.919-0.377,2.545-1.13
		c0.636-0.764,0.954-1.813,0.954-3.149c0-1.347-0.312-2.397-0.938-3.15s-1.479-1.129-2.561-1.129c-1.071,0-1.92,0.376-2.546,1.129
		c-0.625,0.753-0.938,1.804-0.938,3.15c0,1.336,0.313,2.386,0.938,3.149C21.125,61.225,21.974,61.602,23.045,61.602z"/>
	<path id="path1285" d="M30.106,65.642c-0.042,0-0.079-0.016-0.111-0.048c-0.021-0.021-0.031-0.053-0.031-0.095v-10.69
		c0-0.042,0.011-0.074,0.031-0.096c0.032-0.031,0.069-0.048,0.111-0.048h1.146c0.096,0,0.144,0.048,0.144,0.144v1.034
		c0.328-0.445,0.731-0.779,1.209-1.002c0.477-0.223,0.997-0.335,1.559-0.335c0.722,0,1.347,0.187,1.877,0.558
		c0.53,0.36,0.934,0.864,1.209,1.511c0.286,0.637,0.43,1.357,0.43,2.163c0,0.817-0.144,1.549-0.43,2.195
		c-0.275,0.637-0.679,1.141-1.209,1.512c-0.53,0.36-1.161,0.541-1.893,0.541c-0.573,0-1.098-0.101-1.575-0.303
		c-0.467-0.212-0.854-0.541-1.161-0.986v3.802c0,0.043-0.016,0.075-0.048,0.096c-0.021,0.032-0.053,0.048-0.096,0.048H30.106z
		 M33.733,61.76c0.774,0,1.384-0.265,1.83-0.795c0.445-0.541,0.668-1.288,0.668-2.243c0-0.933-0.223-1.665-0.668-2.195
		c-0.446-0.53-1.056-0.795-1.83-0.795c-0.742,0-1.336,0.271-1.781,0.812c-0.445,0.53-0.668,1.256-0.668,2.179
		c0,0.944,0.223,1.687,0.668,2.228S32.99,61.76,33.733,61.76z"/>
	<path id="path1287" d="M42.914,54.508c1.22,0,2.11,0.402,2.673,1.209c0.562,0.795,0.843,1.766,0.843,2.91v0.414
		c-0.011,0.096-0.068,0.144-0.175,0.144h-5.679c0.053,0.806,0.281,1.437,0.684,1.893c0.403,0.456,0.965,0.685,1.687,0.685
		c0.572,0,1.034-0.133,1.384-0.398c0.35-0.275,0.573-0.662,0.668-1.161c0.021-0.096,0.074-0.143,0.159-0.143h0.955
		c0.116,0,0.164,0.068,0.143,0.206c-0.148,0.881-0.52,1.554-1.113,2.021c-0.594,0.456-1.305,0.684-2.132,0.684
		s-1.527-0.186-2.1-0.557c-0.573-0.382-1.008-0.891-1.305-1.526c-0.286-0.647-0.43-1.357-0.43-2.132s0.133-1.479,0.398-2.116
		c0.275-0.646,0.688-1.161,1.24-1.543C41.377,54.703,42.076,54.507,42.914,54.508L42.914,54.508z M42.883,55.732
		c-0.722,0-1.278,0.217-1.671,0.652c-0.382,0.424-0.599,0.991-0.651,1.702h4.501c-0.021-0.732-0.212-1.305-0.572-1.719
		C44.129,55.944,43.593,55.732,42.883,55.732L42.883,55.732z"/>
	<path id="path1289" d="M48.406,62.811c-0.043,0-0.08-0.011-0.111-0.032c-0.021-0.032-0.032-0.069-0.032-0.111v-7.858
		c0-0.042,0.011-0.074,0.032-0.096c0.031-0.031,0.068-0.048,0.111-0.048h1.177c0.042,0,0.074,0.017,0.096,0.048
		c0.031,0.021,0.048,0.054,0.048,0.096v0.938c0.254-0.393,0.594-0.694,1.018-0.906c0.435-0.223,0.917-0.334,1.447-0.334
		c0.838,0,1.501,0.27,1.989,0.811c0.498,0.541,0.747,1.268,0.747,2.18v5.17c0,0.042-0.016,0.079-0.048,0.111
		c-0.021,0.021-0.053,0.032-0.095,0.032h-1.162c-0.095,0-0.143-0.048-0.143-0.144v-4.899c0-1.326-0.536-1.988-1.606-1.988
		c-0.637,0-1.156,0.212-1.56,0.636c-0.393,0.414-0.588,0.971-0.588,1.671v4.581c0,0.042-0.017,0.079-0.048,0.111
		c-0.021,0.021-0.054,0.032-0.096,0.032H48.406z"/>
	<path id="path1291" d="M64.217,62.938c-0.689,0-1.342-0.117-1.957-0.35c-0.615-0.244-1.129-0.637-1.543-1.178
		c-0.413-0.552-0.631-1.268-0.652-2.147c0-0.085,0.048-0.127,0.144-0.127h1.272c0.096,0,0.144,0.042,0.144,0.127
		c0.042,0.806,0.302,1.395,0.779,1.766c0.488,0.371,1.103,0.557,1.846,0.557c0.604,0,1.092-0.148,1.463-0.445
		c0.382-0.297,0.573-0.705,0.573-1.225c0-0.382-0.117-0.705-0.351-0.971c-0.233-0.265-0.514-0.477-0.843-0.636
		c-0.329-0.17-0.796-0.371-1.4-0.604c-0.688-0.255-1.246-0.493-1.67-0.716s-0.79-0.53-1.098-0.923
		c-0.308-0.403-0.461-0.912-0.461-1.527c0-0.88,0.312-1.575,0.938-2.084c0.625-0.52,1.453-0.779,2.481-0.779
		s1.877,0.249,2.545,0.748c0.679,0.487,1.034,1.24,1.066,2.259c0,0.095-0.043,0.143-0.128,0.143H66.11
		c-0.084,0-0.127-0.048-0.127-0.143c-0.021-0.594-0.223-1.029-0.604-1.305c-0.382-0.286-0.886-0.43-1.511-0.43
		c-0.573,0-1.029,0.133-1.368,0.397c-0.34,0.255-0.51,0.604-0.51,1.05c0,0.329,0.106,0.615,0.318,0.859
		c0.223,0.233,0.488,0.43,0.796,0.589c0.308,0.148,0.747,0.339,1.32,0.572c0.764,0.308,1.357,0.573,1.781,0.796
		c0.425,0.223,0.801,0.541,1.13,0.954c0.328,0.414,0.493,0.944,0.493,1.591c0,0.637-0.154,1.193-0.462,1.67
		c-0.297,0.478-0.721,0.849-1.272,1.114C65.553,62.805,64.928,62.938,64.217,62.938L64.217,62.938z"/>
	<path id="path1293" d="M72.932,62.986c-0.764,0-1.442-0.159-2.036-0.478c-0.584-0.329-1.04-0.812-1.368-1.447
		c-0.329-0.637-0.493-1.4-0.493-2.291c0-0.912,0.164-1.687,0.493-2.322c0.328-0.637,0.784-1.119,1.368-1.448
		c0.594-0.328,1.272-0.492,2.036-0.492c0.753,0,1.421,0.164,2.004,0.492c0.594,0.329,1.056,0.817,1.384,1.464
		c0.34,0.637,0.51,1.405,0.51,2.307c0,0.891-0.17,1.654-0.51,2.291c-0.328,0.625-0.79,1.103-1.384,1.432
		C74.353,62.821,73.685,62.986,72.932,62.986z M72.948,61.714c0.764,0,1.362-0.244,1.798-0.732c0.445-0.498,0.668-1.235,0.668-2.211
		c0-0.997-0.223-1.744-0.668-2.243c-0.436-0.498-1.034-0.747-1.798-0.747s-1.368,0.249-1.813,0.747
		c-0.435,0.499-0.652,1.246-0.652,2.243c0,0.976,0.218,1.713,0.652,2.211C71.579,61.469,72.184,61.714,72.948,61.714z"/>
	<path id="path1295" d="M81.367,62.954c-0.858,0-1.537-0.271-2.036-0.812c-0.498-0.551-0.747-1.277-0.747-2.179v-5.154
		c0-0.042,0.01-0.074,0.031-0.096c0.032-0.031,0.069-0.048,0.111-0.048h1.161c0.096,0,0.144,0.048,0.144,0.144v4.899
		c0,1.283,0.546,1.925,1.639,1.925c0.636,0,1.146-0.207,1.527-0.62c0.392-0.414,0.588-0.949,0.588-1.606v-4.598
		c0-0.042,0.011-0.074,0.032-0.096c0.031-0.031,0.068-0.048,0.111-0.048h1.177c0.085,0,0.128,0.048,0.128,0.144v7.858
		c0,0.096-0.043,0.144-0.128,0.144h-1.177c-0.043,0-0.08-0.011-0.111-0.032c-0.021-0.032-0.032-0.069-0.032-0.111v-0.954
		C83.192,62.541,82.386,62.954,81.367,62.954z"/>
	<path id="path1297" d="M87.865,62.811c-0.042,0-0.079-0.011-0.111-0.032c-0.021-0.032-0.032-0.069-0.032-0.111v-7.858
		c0-0.042,0.011-0.074,0.032-0.096c0.032-0.031,0.069-0.048,0.111-0.048h1.161c0.043,0,0.074,0.017,0.096,0.048
		c0.031,0.021,0.048,0.054,0.048,0.096v0.954c0.19-0.382,0.45-0.679,0.779-0.891c0.339-0.223,0.727-0.334,1.161-0.334
		c0.212,0,0.44,0.032,0.684,0.096c0.085,0.021,0.128,0.074,0.128,0.159v1.098c0,0.074-0.032,0.111-0.096,0.111h-0.111
		c-0.233-0.074-0.478-0.111-0.731-0.111c-0.562,0-1.002,0.212-1.32,0.636c-0.318,0.425-0.478,0.955-0.478,1.591v4.55
		c0,0.042-0.016,0.079-0.048,0.111c-0.021,0.021-0.053,0.032-0.096,0.032H87.865z"/>
	<path id="path1299" d="M96.359,62.986c-0.764,0-1.442-0.159-2.037-0.478c-0.583-0.329-1.039-0.812-1.367-1.447
		c-0.329-0.637-0.493-1.4-0.493-2.291c0-0.912,0.164-1.687,0.493-2.322c0.328-0.637,0.784-1.119,1.367-1.448
		c0.595-0.328,1.273-0.492,2.037-0.492c0.996,0,1.829,0.275,2.497,0.827c0.679,0.551,1.065,1.32,1.161,2.307v0.031
		c0,0.043-0.016,0.074-0.048,0.096C99.948,57.79,99.921,57.8,99.89,57.8h-1.13c-0.085,0-0.138-0.047-0.159-0.143
		c-0.063-0.604-0.297-1.066-0.699-1.384C97.509,55.944,97,55.78,96.374,55.78c-0.764,0-1.368,0.249-1.813,0.747
		c-0.435,0.499-0.652,1.246-0.652,2.243c0,0.976,0.218,1.713,0.652,2.211c0.445,0.488,1.05,0.732,1.813,0.732
		c0.615,0,1.118-0.154,1.511-0.462c0.403-0.318,0.642-0.774,0.716-1.368c0.021-0.095,0.074-0.143,0.159-0.143h1.098
		c0.053,0,0.09,0.016,0.111,0.048c0.032,0.031,0.043,0.068,0.032,0.111c-0.096,0.965-0.478,1.723-1.146,2.274
		C98.188,62.716,97.355,62.986,96.359,62.986L96.359,62.986z"/>
	<path id="path1301" d="M104.93,54.508c1.22,0,2.11,0.402,2.672,1.209c0.562,0.795,0.844,1.766,0.844,2.91v0.414
		c-0.011,0.096-0.069,0.144-0.175,0.144h-5.68c0.053,0.806,0.281,1.437,0.685,1.893c0.402,0.456,0.965,0.685,1.686,0.685
		c0.573,0,1.034-0.133,1.384-0.398c0.351-0.275,0.573-0.662,0.669-1.161c0.021-0.096,0.074-0.143,0.159-0.143h0.954
		c0.116,0,0.164,0.068,0.144,0.206c-0.149,0.881-0.521,1.554-1.114,2.021c-0.594,0.456-1.304,0.684-2.132,0.684
		c-0.827,0-1.526-0.186-2.1-0.557c-0.572-0.382-1.007-0.891-1.304-1.526c-0.287-0.647-0.43-1.357-0.43-2.132
		s0.132-1.479,0.397-2.116c0.275-0.646,0.689-1.161,1.241-1.543C103.392,54.703,104.092,54.507,104.93,54.508L104.93,54.508z
		 M104.898,55.732c-0.721,0-1.277,0.217-1.67,0.652c-0.382,0.424-0.6,0.991-0.652,1.702h4.502c-0.021-0.732-0.212-1.305-0.573-1.719
		C106.144,55.944,105.609,55.732,104.898,55.732L104.898,55.732z"/>
</g>
<g id="text109">
	<path id="path1240" d="M32.166,135.465c-0.689,0-1.342-0.117-1.957-0.35c-0.615-0.244-1.129-0.637-1.543-1.178
		c-0.413-0.552-0.631-1.268-0.652-2.147c0-0.085,0.048-0.127,0.144-0.127h1.272c0.096,0,0.144,0.042,0.144,0.127
		c0.042,0.806,0.302,1.395,0.779,1.766c0.487,0.371,1.103,0.557,1.845,0.557c0.604,0,1.093-0.148,1.464-0.445
		c0.382-0.297,0.573-0.705,0.573-1.225c0-0.382-0.117-0.705-0.351-0.971c-0.233-0.265-0.515-0.477-0.843-0.636
		c-0.329-0.17-0.796-0.371-1.4-0.604c-0.689-0.255-1.246-0.493-1.67-0.716s-0.79-0.53-1.098-0.923
		c-0.308-0.403-0.461-0.912-0.461-1.527c0-0.88,0.312-1.575,0.938-2.084c0.625-0.52,1.452-0.779,2.481-0.779
		c1.028,0,1.877,0.249,2.545,0.748c0.679,0.487,1.034,1.24,1.066,2.259c0,0.095-0.043,0.143-0.128,0.143h-1.257
		c-0.085,0-0.127-0.048-0.127-0.143c-0.021-0.594-0.223-1.029-0.604-1.305c-0.382-0.286-0.886-0.43-1.511-0.43
		c-0.573,0-1.029,0.133-1.368,0.397c-0.34,0.255-0.51,0.604-0.51,1.051c0,0.328,0.106,0.614,0.318,0.858
		c0.223,0.233,0.488,0.43,0.796,0.589c0.308,0.148,0.747,0.339,1.32,0.572c0.764,0.308,1.357,0.573,1.781,0.796
		s0.801,0.541,1.13,0.954c0.328,0.414,0.493,0.944,0.493,1.591c0,0.637-0.154,1.193-0.462,1.67
		c-0.297,0.478-0.721,0.849-1.272,1.114C33.502,135.332,32.877,135.465,32.166,135.465L32.166,135.465z"/>
	<path id="path1242" d="M39.615,135.338c-1.379,0-2.068-0.716-2.068-2.147v-4.884h-1.065c-0.096,0-0.144-0.048-0.144-0.144v-0.827
		c0-0.042,0.011-0.074,0.032-0.096c0.031-0.031,0.068-0.048,0.111-0.048h1.065v-2.052c0-0.042,0.011-0.074,0.032-0.096
		c0.031-0.031,0.068-0.048,0.111-0.048h1.161c0.042,0,0.074,0.017,0.095,0.048c0.032,0.021,0.048,0.054,0.048,0.096v2.052h1.782
		c0.085,0,0.127,0.048,0.127,0.144v0.827c0,0.096-0.042,0.144-0.127,0.144h-1.782v4.549c0,0.488,0.08,0.833,0.239,1.034
		c0.169,0.191,0.456,0.286,0.858,0.286h0.685c0.085,0,0.127,0.043,0.127,0.128v0.891c0,0.096-0.042,0.144-0.127,0.144H39.615z"/>
	<path id="path1244" d="M44.753,135.512c-0.806,0-1.452-0.212-1.94-0.637c-0.478-0.424-0.716-0.997-0.716-1.718
		c0-0.53,0.138-0.991,0.414-1.384c0.286-0.403,0.673-0.705,1.161-0.907c0.233-0.095,0.456-0.159,0.668-0.19
		c0.223-0.043,0.541-0.091,0.954-0.144c0.445-0.042,0.827-0.096,1.146-0.159c0.329-0.074,0.652-0.201,0.971-0.382
		c0.105-0.063,0.159-0.153,0.159-0.271c-0.011-0.562-0.175-0.976-0.493-1.24c-0.318-0.276-0.801-0.414-1.448-0.414
		c-0.625,0-1.14,0.117-1.543,0.351c-0.402,0.223-0.625,0.588-0.668,1.098c0,0.105-0.048,0.159-0.143,0.159h-0.907
		c-0.042,0-0.079-0.017-0.111-0.048c-0.021-0.032-0.032-0.069-0.032-0.111c0.043-0.817,0.382-1.432,1.019-1.846
		c0.637-0.424,1.399-0.637,2.291-0.637c0.954,0,1.729,0.239,2.322,0.717c0.594,0.466,0.891,1.15,0.891,2.052v5.393
		c0,0.096-0.048,0.144-0.144,0.144h-0.874c-0.106,0-0.159-0.048-0.159-0.144v-1.002C46.837,135.072,45.899,135.512,44.753,135.512z
		 M45.04,134.463c0.487-0.011,0.943-0.138,1.368-0.382c0.424-0.244,0.779-0.589,1.065-1.034c0.063-0.063,0.096-0.159,0.096-0.286
		v-1.766c-0.297,0.158-0.604,0.275-0.923,0.35s-0.674,0.138-1.066,0.19c-0.35,0.054-0.625,0.102-0.827,0.144
		c-0.19,0.042-0.371,0.111-0.54,0.207c-0.521,0.265-0.78,0.71-0.78,1.336c0,0.403,0.144,0.711,0.43,0.923
		C44.159,134.356,44.552,134.463,45.04,134.463z"/>
	<path id="path1246" d="M51.06,135.338c-0.042,0-0.079-0.011-0.111-0.032c-0.021-0.032-0.031-0.069-0.031-0.111v-7.858
		c0-0.042,0.01-0.074,0.031-0.096c0.032-0.031,0.069-0.048,0.111-0.048h1.178c0.042,0,0.074,0.017,0.095,0.048
		c0.032,0.021,0.048,0.054,0.048,0.096v0.938c0.255-0.393,0.594-0.694,1.019-0.906c0.435-0.223,0.917-0.334,1.447-0.334
		c0.838,0,1.501,0.27,1.988,0.811c0.499,0.541,0.748,1.268,0.748,2.18v5.17c0,0.042-0.016,0.079-0.048,0.111
		c-0.021,0.021-0.053,0.032-0.096,0.032h-1.161c-0.096,0-0.143-0.048-0.143-0.144v-4.899c0-1.326-0.536-1.988-1.607-1.988
		c-0.636,0-1.155,0.212-1.559,0.636c-0.393,0.414-0.589,0.971-0.589,1.671v4.581c0,0.042-0.016,0.079-0.048,0.111
		c-0.021,0.021-0.053,0.032-0.095,0.032H51.06z"/>
	<path id="path1248" d="M62.87,135.512c-1.167,0-2.053-0.388-2.657-1.161c-0.594-0.785-0.891-1.813-0.891-3.086
		c0-1.263,0.297-2.28,0.891-3.055c0.604-0.785,1.485-1.177,2.641-1.177c1.198,0,2.11,0.439,2.736,1.32v-3.851
		c0-0.042,0.011-0.074,0.032-0.095c0.031-0.032,0.068-0.048,0.111-0.048h1.177c0.043,0,0.074,0.016,0.096,0.048
		c0.031,0.021,0.048,0.053,0.048,0.095v10.69c0,0.042-0.017,0.079-0.048,0.111c-0.021,0.021-0.053,0.032-0.096,0.032h-1.161
		c-0.042,0-0.08-0.011-0.111-0.032c-0.021-0.032-0.032-0.069-0.032-0.111v-1.002C64.97,135.072,64.058,135.512,62.87,135.512
		L62.87,135.512z M63.268,134.24c0.742,0,1.325-0.266,1.75-0.796c0.435-0.53,0.652-1.257,0.652-2.179
		c0-0.902-0.218-1.618-0.652-2.148c-0.425-0.53-1.008-0.795-1.75-0.795c-0.827,0-1.448,0.26-1.861,0.779
		c-0.414,0.509-0.62,1.23-0.62,2.164c0,0.954,0.206,1.691,0.62,2.211C61.82,133.985,62.441,134.24,63.268,134.24z"/>
	<path id="path1250" d="M71.691,135.512c-0.806,0-1.452-0.212-1.94-0.637c-0.478-0.424-0.716-0.997-0.716-1.718
		c0-0.53,0.138-0.991,0.414-1.384c0.286-0.403,0.673-0.705,1.161-0.907c0.233-0.095,0.456-0.159,0.668-0.19
		c0.223-0.043,0.541-0.091,0.954-0.144c0.445-0.042,0.827-0.096,1.146-0.159c0.329-0.074,0.652-0.201,0.971-0.382
		c0.105-0.063,0.159-0.153,0.159-0.271c-0.011-0.562-0.176-0.976-0.493-1.24c-0.318-0.276-0.801-0.414-1.448-0.414
		c-0.625,0-1.14,0.117-1.543,0.351c-0.403,0.223-0.626,0.588-0.668,1.098c0,0.105-0.048,0.159-0.144,0.159h-0.906
		c-0.043,0-0.08-0.017-0.111-0.048c-0.021-0.032-0.032-0.069-0.032-0.111c0.043-0.817,0.382-1.432,1.019-1.846
		c0.636-0.424,1.399-0.637,2.291-0.637c0.954,0,1.729,0.239,2.322,0.717c0.594,0.466,0.891,1.15,0.891,2.052v5.393
		c0,0.096-0.048,0.144-0.144,0.144h-0.875c-0.105,0-0.158-0.048-0.158-0.144v-1.002C73.775,135.072,72.836,135.512,71.691,135.512z
		 M71.978,134.463c0.487-0.011,0.943-0.138,1.367-0.382c0.425-0.244,0.78-0.589,1.066-1.034c0.063-0.063,0.096-0.159,0.096-0.286
		v-1.766c-0.298,0.158-0.604,0.275-0.923,0.35s-0.674,0.138-1.066,0.19c-0.35,0.054-0.625,0.102-0.827,0.144
		c-0.19,0.042-0.371,0.111-0.541,0.207c-0.52,0.265-0.779,0.71-0.779,1.336c0,0.403,0.144,0.711,0.43,0.923
		C71.097,134.356,71.49,134.463,71.978,134.463z"/>
	<path id="path1252" d="M77.997,135.338c-0.042,0-0.079-0.011-0.111-0.032c-0.021-0.032-0.032-0.069-0.032-0.111v-7.858
		c0-0.042,0.011-0.074,0.032-0.096c0.032-0.031,0.069-0.048,0.111-0.048h1.161c0.043,0,0.074,0.017,0.096,0.048
		c0.032,0.021,0.048,0.054,0.048,0.096v0.954c0.19-0.382,0.45-0.679,0.779-0.891c0.34-0.223,0.727-0.334,1.161-0.334
		c0.212,0,0.44,0.032,0.685,0.096c0.084,0.021,0.127,0.074,0.127,0.159v1.098c0,0.074-0.032,0.111-0.096,0.111h-0.111
		c-0.233-0.074-0.478-0.111-0.731-0.111c-0.562,0-1.002,0.212-1.32,0.636c-0.318,0.425-0.478,0.955-0.478,1.591v4.55
		c0,0.042-0.016,0.079-0.048,0.111c-0.021,0.021-0.053,0.032-0.096,0.032H77.997z"/>
	<path id="path1254" d="M86.017,135.512c-1.167,0-2.052-0.388-2.656-1.161c-0.594-0.785-0.892-1.813-0.892-3.086
		c0-1.263,0.298-2.28,0.892-3.055c0.604-0.785,1.484-1.177,2.641-1.177c1.198,0,2.11,0.439,2.735,1.32v-3.851
		c0-0.042,0.011-0.074,0.032-0.095c0.032-0.032,0.069-0.048,0.111-0.048h1.177c0.043,0,0.075,0.016,0.096,0.048
		c0.032,0.021,0.048,0.053,0.048,0.095v10.69c0,0.042-0.016,0.079-0.048,0.111c-0.021,0.021-0.053,0.032-0.096,0.032h-1.161
		c-0.042,0-0.079-0.011-0.111-0.032c-0.021-0.032-0.031-0.069-0.031-0.111v-1.002C88.116,135.072,87.204,135.512,86.017,135.512z
		 M86.414,134.24c0.742,0,1.326-0.266,1.75-0.796c0.435-0.53,0.652-1.257,0.652-2.179c0-0.902-0.218-1.618-0.652-2.148
		c-0.424-0.53-1.008-0.795-1.75-0.795c-0.827,0-1.447,0.26-1.861,0.779c-0.413,0.509-0.62,1.23-0.62,2.164
		c0,0.954,0.207,1.691,0.62,2.211C84.967,133.985,85.587,134.24,86.414,134.24z"/>
	<path id="path1256" d="M95.65,135.512c-1.125,0-1.983-0.218-2.577-0.652c-0.679-0.478-1.04-1.188-1.082-2.132
		c0-0.042,0.011-0.074,0.032-0.096c0.031-0.031,0.068-0.047,0.111-0.047h1.065c0.096,0,0.144,0.047,0.144,0.143
		c0.031,0.562,0.217,0.981,0.557,1.257c0.36,0.255,0.848,0.382,1.463,0.382c0.488,0,0.891-0.106,1.209-0.318
		s0.478-0.535,0.478-0.971c0-0.286-0.096-0.514-0.286-0.684c-0.181-0.181-0.408-0.312-0.685-0.397
		c-0.265-0.096-0.657-0.202-1.177-0.318c-0.583-0.138-1.061-0.275-1.432-0.413c-0.371-0.139-0.685-0.351-0.938-0.637
		c-0.255-0.297-0.382-0.689-0.382-1.178c0-0.773,0.271-1.367,0.812-1.781c0.54-0.424,1.262-0.636,2.163-0.636
		c0.859,0,1.559,0.186,2.1,0.557c0.668,0.445,1.019,1.098,1.05,1.956c0,0.096-0.042,0.144-0.127,0.144h-1.002
		c-0.096,0-0.144-0.048-0.144-0.144c-0.031-0.477-0.212-0.832-0.541-1.065c-0.328-0.212-0.769-0.318-1.32-0.318
		c-0.498,0-0.896,0.106-1.192,0.318c-0.298,0.201-0.446,0.478-0.446,0.827c0,0.244,0.096,0.44,0.287,0.589
		c0.19,0.148,0.413,0.265,0.668,0.35c0.254,0.074,0.689,0.186,1.305,0.334c0.572,0.138,1.039,0.286,1.399,0.445
		c0.371,0.159,0.679,0.393,0.923,0.7s0.365,0.71,0.365,1.209c0,0.795-0.265,1.427-0.795,1.893
		C97.123,135.284,96.455,135.512,95.65,135.512z"/>
	<path id="path1258" d="M41.094,150.549c-1.029,0-1.92-0.228-2.673-0.684c-0.753-0.467-1.336-1.124-1.75-1.973
		c-0.402-0.849-0.604-1.846-0.604-2.99c0-1.146,0.202-2.143,0.604-2.991c0.414-0.849,0.997-1.501,1.75-1.957
		c0.753-0.466,1.644-0.699,2.673-0.699c1.028,0,1.919,0.233,2.672,0.699c0.753,0.456,1.331,1.108,1.734,1.957
		c0.413,0.849,0.62,1.846,0.62,2.991c0,1.145-0.207,2.142-0.62,2.99c-0.403,0.849-0.981,1.506-1.734,1.973
		C43.013,150.321,42.122,150.549,41.094,150.549z M41.094,149.18c1.071,0,1.919-0.376,2.545-1.129
		c0.637-0.764,0.954-1.813,0.954-3.149c0-1.348-0.312-2.397-0.938-3.15c-0.625-0.753-1.479-1.129-2.561-1.129
		c-1.071,0-1.92,0.376-2.546,1.129c-0.625,0.753-0.938,1.803-0.938,3.15c0,1.336,0.313,2.386,0.938,3.149
		C39.174,148.804,40.023,149.18,41.094,149.18z"/>
	<path id="path1260" d="M50.668,150.533c-0.858,0-1.537-0.271-2.036-0.812c-0.498-0.551-0.747-1.277-0.747-2.179v-5.154
		c0-0.043,0.01-0.074,0.031-0.096c0.032-0.032,0.069-0.048,0.111-0.048h1.161c0.096,0,0.144,0.048,0.144,0.144v4.899
		c0,1.283,0.546,1.925,1.639,1.925c0.636,0,1.146-0.207,1.526-0.62c0.393-0.414,0.589-0.949,0.589-1.607v-4.597
		c0-0.043,0.011-0.074,0.032-0.096c0.031-0.032,0.068-0.048,0.111-0.048h1.177c0.085,0,0.128,0.048,0.128,0.144v7.858
		c0,0.095-0.043,0.143-0.128,0.143H53.23c-0.043,0-0.08-0.01-0.111-0.031c-0.021-0.032-0.032-0.069-0.032-0.111v-0.955
		C52.492,150.119,51.687,150.533,50.668,150.533z"/>
	<path id="path1262" d="M63.91,142.245c0.053,0,0.085,0.016,0.095,0.048c0.021,0.032,0.026,0.069,0.017,0.111l-2.896,7.874
		c-0.032,0.074-0.09,0.111-0.175,0.111h-1.719c-0.084,0-0.143-0.037-0.175-0.111l-2.895-7.874l-0.017-0.048
		c0-0.074,0.043-0.111,0.128-0.111h1.32c0.085,0,0.138,0.037,0.159,0.111l2.338,6.92l2.339-6.92
		c0.042-0.074,0.101-0.111,0.175-0.111H63.91z"/>
	<path id="path1264" d="M68.607,142.086c1.22,0,2.11,0.403,2.673,1.209c0.562,0.796,0.843,1.766,0.843,2.911v0.414
		c-0.011,0.096-0.069,0.143-0.175,0.143h-5.679c0.053,0.807,0.28,1.438,0.684,1.894s0.965,0.684,1.687,0.684
		c0.572,0,1.033-0.132,1.384-0.397c0.35-0.275,0.572-0.663,0.668-1.161c0.021-0.096,0.074-0.144,0.159-0.144h0.954
		c0.117,0,0.165,0.069,0.144,0.207c-0.148,0.88-0.52,1.554-1.113,2.021c-0.595,0.456-1.305,0.684-2.132,0.684
		s-1.527-0.186-2.1-0.557c-0.573-0.382-1.008-0.891-1.305-1.527c-0.286-0.646-0.43-1.357-0.43-2.131
		c0-0.774,0.133-1.479,0.397-2.116c0.276-0.646,0.689-1.161,1.241-1.543C67.069,142.282,67.769,142.086,68.607,142.086
		L68.607,142.086z M68.575,143.311c-0.722,0-1.278,0.217-1.671,0.651c-0.382,0.425-0.599,0.992-0.652,1.702h4.502
		c-0.021-0.731-0.212-1.304-0.572-1.718C69.822,143.523,69.285,143.311,68.575,143.311z"/>
	<path id="path1266" d="M74.098,150.389c-0.042,0-0.079-0.01-0.111-0.031c-0.021-0.032-0.031-0.069-0.031-0.111v-7.858
		c0-0.043,0.011-0.074,0.031-0.096c0.032-0.032,0.069-0.048,0.111-0.048h1.161c0.043,0,0.074,0.016,0.096,0.048
		c0.032,0.021,0.048,0.053,0.048,0.096v0.954c0.19-0.382,0.451-0.679,0.779-0.891c0.34-0.223,0.727-0.334,1.161-0.334
		c0.212,0,0.44,0.031,0.685,0.096c0.085,0.021,0.127,0.074,0.127,0.159v1.097c0,0.074-0.031,0.111-0.096,0.112h-0.111
		c-0.233-0.075-0.477-0.112-0.731-0.112c-0.562,0-1.002,0.213-1.32,0.637s-0.478,0.954-0.478,1.591v4.55
		c0,0.042-0.016,0.079-0.048,0.111c-0.021,0.021-0.053,0.031-0.095,0.031H74.098z"/>
	<path id="path1268" d="M81.978,150.389c-1.379,0-2.068-0.716-2.068-2.147v-4.884h-1.065c-0.096,0-0.144-0.047-0.144-0.143v-0.827
		c0-0.043,0.011-0.074,0.032-0.096c0.031-0.032,0.068-0.048,0.111-0.048h1.065v-2.052c0-0.043,0.011-0.074,0.032-0.096
		c0.031-0.031,0.068-0.048,0.111-0.048h1.161c0.042,0,0.074,0.017,0.096,0.048c0.031,0.021,0.048,0.053,0.048,0.096v2.052h1.781
		c0.085,0,0.127,0.048,0.127,0.144v0.827c0,0.096-0.042,0.143-0.127,0.143h-1.781v4.55c0,0.488,0.079,0.833,0.238,1.034
		c0.17,0.191,0.456,0.286,0.859,0.286h0.684c0.085,0,0.127,0.043,0.127,0.128v0.891c0,0.096-0.042,0.143-0.127,0.143H81.978z"/>
	<path id="path1270" d="M87.835,150.565c-1.124,0-1.983-0.218-2.577-0.652c-0.679-0.478-1.039-1.188-1.082-2.132
		c0-0.043,0.011-0.074,0.032-0.096c0.032-0.031,0.069-0.048,0.111-0.048h1.065c0.096,0,0.144,0.048,0.144,0.144
		c0.032,0.562,0.218,0.98,0.557,1.257c0.36,0.254,0.849,0.382,1.464,0.382c0.487,0,0.891-0.106,1.209-0.318s0.477-0.535,0.477-0.971
		c0-0.286-0.095-0.514-0.286-0.684c-0.18-0.181-0.408-0.313-0.684-0.397c-0.266-0.096-0.658-0.202-1.178-0.318
		c-0.583-0.138-1.061-0.276-1.432-0.414s-0.684-0.35-0.938-0.636c-0.254-0.297-0.382-0.689-0.382-1.178
		c0-0.773,0.271-1.368,0.812-1.781c0.541-0.425,1.262-0.637,2.163-0.637c0.859,0,1.56,0.186,2.101,0.557
		c0.668,0.446,1.018,1.098,1.05,1.957c0,0.096-0.043,0.144-0.128,0.144H89.33c-0.096,0-0.143-0.048-0.143-0.144
		c-0.032-0.478-0.213-0.832-0.541-1.065c-0.329-0.213-0.77-0.318-1.32-0.318c-0.499,0-0.896,0.105-1.193,0.318
		c-0.297,0.201-0.445,0.477-0.445,0.827c0,0.243,0.096,0.439,0.286,0.588c0.191,0.148,0.414,0.266,0.668,0.351
		c0.255,0.074,0.689,0.186,1.305,0.334c0.572,0.138,1.039,0.286,1.399,0.445c0.372,0.159,0.679,0.393,0.923,0.7
		s0.366,0.71,0.366,1.209c0,0.795-0.266,1.426-0.796,1.893C89.309,150.337,88.641,150.565,87.835,150.565L87.835,150.565z"/>
</g>
<g id="text119">
	<path id="path1124" d="M217.386,28.257c-1.028,0-1.92-0.233-2.673-0.699c-0.753-0.478-1.331-1.141-1.733-1.989
		c-0.393-0.848-0.589-1.834-0.589-2.958c0-1.125,0.196-2.11,0.589-2.959c0.402-0.859,0.98-1.522,1.733-1.988
		c0.753-0.478,1.639-0.716,2.657-0.716c0.731,0,1.432,0.158,2.1,0.477c0.668,0.308,1.22,0.77,1.654,1.384
		c0.435,0.604,0.674,1.326,0.716,2.164c0,0.042-0.016,0.079-0.048,0.111c-0.021,0.031-0.053,0.048-0.096,0.048h-1.129
		c-0.074,0-0.122-0.043-0.144-0.128c-0.116-0.838-0.445-1.489-0.986-1.956c-0.541-0.478-1.229-0.716-2.067-0.716
		c-1.071,0-1.92,0.382-2.546,1.146c-0.625,0.753-0.938,1.776-0.938,3.069c0,0.881,0.144,1.649,0.43,2.307
		c0.286,0.647,0.694,1.146,1.225,1.496c0.53,0.35,1.151,0.524,1.861,0.524c0.509,0,0.981-0.111,1.416-0.334
		c0.435-0.233,0.795-0.552,1.082-0.954c0.286-0.403,0.461-0.864,0.524-1.384c0.021-0.085,0.069-0.128,0.144-0.128h1.129
		c0.043,0,0.074,0.021,0.096,0.063c0.032,0.032,0.048,0.074,0.048,0.128c-0.063,0.827-0.312,1.543-0.748,2.147
		c-0.424,0.604-0.965,1.065-1.622,1.384C218.812,28.103,218.117,28.257,217.386,28.257L217.386,28.257z"/>
	<path id="path1126" d="M226.946,28.273c-0.764,0-1.442-0.159-2.036-0.478c-0.584-0.329-1.04-0.812-1.368-1.447
		c-0.329-0.637-0.493-1.4-0.493-2.291c0-0.912,0.164-1.687,0.493-2.322c0.328-0.637,0.784-1.119,1.368-1.448
		c0.594-0.328,1.272-0.493,2.036-0.493c0.753,0,1.421,0.165,2.004,0.493c0.594,0.329,1.056,0.817,1.384,1.464
		c0.34,0.637,0.51,1.405,0.51,2.307c0,0.891-0.17,1.654-0.51,2.291c-0.328,0.625-0.79,1.103-1.384,1.432
		C228.366,28.108,227.698,28.273,226.946,28.273z M226.961,27c0.764,0,1.362-0.243,1.798-0.731c0.445-0.498,0.668-1.235,0.668-2.211
		c0-0.997-0.223-1.744-0.668-2.243c-0.436-0.498-1.034-0.747-1.798-0.747s-1.368,0.249-1.813,0.747
		c-0.435,0.499-0.652,1.246-0.652,2.243c0,0.976,0.218,1.713,0.652,2.211C225.593,26.757,226.198,27,226.961,27z"/>
	<path id="path1128" d="M235.885,28.273c-1.167,0-2.052-0.388-2.656-1.161c-0.594-0.785-0.892-1.813-0.892-3.087
		c0-1.262,0.298-2.279,0.892-3.054c0.604-0.785,1.484-1.178,2.641-1.178c1.198,0,2.11,0.44,2.736,1.32v-3.85
		c0-0.042,0.01-0.074,0.031-0.095c0.032-0.032,0.069-0.048,0.111-0.048h1.178c0.042,0,0.074,0.016,0.095,0.048
		c0.032,0.021,0.048,0.053,0.048,0.095v10.69c0,0.042-0.016,0.079-0.048,0.111c-0.021,0.021-0.053,0.031-0.095,0.031h-1.162
		c-0.042,0-0.079-0.01-0.111-0.031c-0.021-0.032-0.031-0.069-0.031-0.111v-1.002C237.985,27.833,237.073,28.273,235.885,28.273z
		 M236.282,27c0.742,0,1.326-0.265,1.75-0.795c0.435-0.53,0.652-1.257,0.652-2.18c0-0.901-0.218-1.617-0.652-2.147
		c-0.424-0.53-1.008-0.795-1.75-0.795c-0.827,0-1.447,0.26-1.861,0.779c-0.413,0.509-0.62,1.23-0.62,2.163
		c0,0.955,0.207,1.691,0.62,2.212C234.835,26.746,235.455,27,236.282,27z"/>
	<path id="path1130" d="M245.676,19.794c1.22,0,2.11,0.403,2.673,1.209c0.562,0.796,0.843,1.766,0.843,2.911v0.414
		c-0.01,0.096-0.068,0.143-0.175,0.143h-5.679c0.053,0.807,0.281,1.438,0.684,1.894c0.403,0.456,0.966,0.684,1.687,0.684
		c0.572,0,1.034-0.132,1.384-0.397c0.351-0.275,0.573-0.663,0.668-1.161c0.021-0.096,0.074-0.144,0.159-0.144h0.955
		c0.116,0,0.164,0.069,0.143,0.207c-0.148,0.88-0.52,1.554-1.113,2.021c-0.594,0.456-1.305,0.684-2.132,0.684
		s-1.527-0.186-2.1-0.557c-0.572-0.382-1.008-0.891-1.305-1.527c-0.286-0.646-0.43-1.357-0.43-2.131
		c0-0.774,0.133-1.479,0.398-2.116c0.275-0.646,0.689-1.161,1.24-1.543C244.139,19.99,244.839,19.794,245.676,19.794L245.676,19.794
		z M245.645,21.019c-0.722,0-1.278,0.217-1.671,0.652c-0.382,0.424-0.599,0.991-0.651,1.701h4.501
		c-0.021-0.731-0.212-1.304-0.572-1.718C246.891,21.231,246.355,21.019,245.645,21.019z"/>
</g>
<g id="text119-3">
	<path id="path1133" d="M188.669,61.221c-1.028,0-1.919-0.232-2.672-0.699c-0.753-0.478-1.331-1.141-1.734-1.988
		c-0.393-0.849-0.589-1.835-0.589-2.959s0.196-2.11,0.589-2.959c0.403-0.859,0.981-1.522,1.734-1.988
		c0.753-0.478,1.639-0.716,2.656-0.716c0.731,0,1.432,0.159,2.1,0.477c0.668,0.308,1.22,0.77,1.654,1.385
		c0.436,0.604,0.674,1.325,0.716,2.163c0,0.042-0.016,0.079-0.047,0.111c-0.021,0.031-0.054,0.048-0.096,0.048h-1.13
		c-0.074,0-0.122-0.043-0.143-0.128c-0.117-0.837-0.445-1.489-0.986-1.956c-0.541-0.478-1.23-0.716-2.068-0.716
		c-1.071,0-1.919,0.382-2.545,1.146c-0.626,0.753-0.938,1.776-0.938,3.07c0,0.88,0.143,1.648,0.43,2.306
		c0.286,0.647,0.694,1.146,1.225,1.496c0.53,0.35,1.15,0.524,1.861,0.524c0.509,0,0.98-0.111,1.415-0.334
		c0.436-0.233,0.796-0.552,1.082-0.954c0.286-0.403,0.462-0.864,0.525-1.384c0.021-0.085,0.068-0.128,0.143-0.128h1.13
		c0.042,0,0.074,0.021,0.096,0.063c0.031,0.032,0.047,0.074,0.047,0.128c-0.063,0.827-0.312,1.543-0.747,2.147
		c-0.425,0.604-0.965,1.065-1.623,1.384C190.096,61.068,189.402,61.221,188.669,61.221L188.669,61.221z"/>
	<path id="path1135" d="M198.229,61.238c-0.764,0-1.442-0.159-2.036-0.478c-0.583-0.329-1.039-0.812-1.368-1.447
		c-0.329-0.637-0.493-1.4-0.493-2.291c0-0.912,0.164-1.687,0.493-2.322c0.329-0.637,0.785-1.119,1.368-1.448
		c0.594-0.328,1.272-0.493,2.036-0.493c0.753,0,1.421,0.165,2.005,0.493c0.594,0.329,1.055,0.817,1.384,1.464
		c0.339,0.637,0.509,1.405,0.509,2.307c0,0.891-0.17,1.654-0.509,2.291c-0.329,0.625-0.79,1.103-1.384,1.432
		C199.65,61.073,198.982,61.238,198.229,61.238z M198.244,59.966c0.764,0,1.363-0.244,1.798-0.732
		c0.445-0.498,0.668-1.235,0.668-2.211c0-0.997-0.223-1.744-0.668-2.243c-0.435-0.498-1.034-0.747-1.798-0.747
		s-1.368,0.249-1.813,0.747c-0.435,0.499-0.652,1.246-0.652,2.243c0,0.976,0.218,1.713,0.652,2.211
		C196.876,59.721,197.481,59.966,198.244,59.966z"/>
	<path id="path1137" d="M204.167,61.063c-0.085,0-0.127-0.048-0.127-0.144v-10.69c0-0.095,0.042-0.143,0.127-0.143h1.178
		c0.042,0,0.074,0.016,0.095,0.048c0.032,0.021,0.048,0.053,0.048,0.095v10.69c0,0.042-0.016,0.079-0.048,0.111
		c-0.021,0.021-0.053,0.032-0.095,0.032H204.167z"/>
	<path id="path1139" d="M208.175,61.063c-0.085,0-0.127-0.048-0.127-0.144v-10.69c0-0.095,0.042-0.143,0.127-0.143h1.178
		c0.042,0,0.074,0.016,0.095,0.048c0.032,0.021,0.048,0.053,0.048,0.095v10.69c0,0.042-0.016,0.079-0.048,0.111
		c-0.021,0.021-0.053,0.032-0.095,0.032H208.175z"/>
	<path id="path1141" d="M214.188,61.238c-0.806,0-1.453-0.212-1.94-0.637c-0.478-0.424-0.716-0.997-0.716-1.718
		c0-0.53,0.138-0.991,0.413-1.384c0.286-0.403,0.674-0.705,1.161-0.907c0.233-0.096,0.456-0.159,0.668-0.19
		c0.224-0.043,0.541-0.091,0.955-0.144c0.445-0.042,0.827-0.096,1.146-0.159c0.328-0.074,0.652-0.201,0.97-0.382
		c0.106-0.063,0.159-0.153,0.159-0.271c-0.011-0.562-0.175-0.976-0.493-1.24c-0.318-0.276-0.801-0.414-1.447-0.414
		c-0.626,0-1.14,0.117-1.543,0.351c-0.403,0.223-0.626,0.588-0.668,1.098c0,0.105-0.048,0.158-0.144,0.158h-0.906
		c-0.043,0-0.08-0.016-0.111-0.047c-0.021-0.032-0.032-0.069-0.032-0.111c0.042-0.817,0.382-1.432,1.019-1.846
		c0.636-0.424,1.399-0.637,2.29-0.637c0.955,0,1.729,0.239,2.322,0.716c0.595,0.467,0.892,1.151,0.892,2.053v5.393
		c0,0.096-0.048,0.144-0.144,0.144h-0.875c-0.105,0-0.159-0.048-0.159-0.144v-1.002C216.272,60.798,215.333,61.238,214.188,61.238
		L214.188,61.238z M214.474,60.188c0.488-0.011,0.944-0.139,1.368-0.382c0.424-0.244,0.779-0.589,1.065-1.034
		c0.064-0.063,0.096-0.159,0.096-0.286V56.72c-0.297,0.158-0.604,0.275-0.923,0.35c-0.317,0.074-0.673,0.138-1.065,0.19
		c-0.35,0.054-0.626,0.102-0.827,0.144c-0.191,0.042-0.371,0.111-0.541,0.207c-0.52,0.265-0.779,0.71-0.779,1.336
		c0,0.403,0.144,0.711,0.43,0.923C213.594,60.082,213.987,60.188,214.474,60.188z"/>
	<path id="path1143" d="M224.534,61.238c-1.188,0-2.1-0.44-2.736-1.32v1.002c0,0.042-0.016,0.079-0.047,0.111
		c-0.021,0.021-0.054,0.032-0.096,0.032h-1.161c-0.043,0-0.08-0.011-0.111-0.032c-0.021-0.032-0.032-0.069-0.032-0.111v-10.69
		c0-0.042,0.011-0.074,0.032-0.095c0.031-0.032,0.068-0.048,0.111-0.048h1.177c0.043,0,0.074,0.016,0.096,0.048
		c0.031,0.021,0.048,0.053,0.048,0.095v3.85c0.625-0.88,1.537-1.32,2.736-1.32c1.155,0,2.03,0.393,2.624,1.178
		c0.604,0.774,0.907,1.792,0.907,3.054c0,1.273-0.303,2.302-0.907,3.087C226.581,60.85,225.701,61.238,224.534,61.238
		L224.534,61.238z M224.137,59.966c0.827,0,1.447-0.255,1.861-0.764c0.413-0.52,0.62-1.257,0.62-2.212
		c0-0.933-0.207-1.654-0.62-2.163c-0.414-0.52-1.034-0.779-1.861-0.779c-0.742,0-1.331,0.265-1.766,0.795
		c-0.425,0.53-0.637,1.246-0.637,2.147c0,0.923,0.212,1.649,0.637,2.18C222.806,59.7,223.395,59.966,224.137,59.966z"/>
	<path id="path1145" d="M233.462,61.238c-0.764,0-1.442-0.159-2.036-0.478c-0.584-0.329-1.04-0.812-1.368-1.447
		c-0.329-0.637-0.493-1.4-0.493-2.291c0-0.912,0.164-1.687,0.493-2.322c0.328-0.637,0.784-1.119,1.368-1.448
		c0.594-0.328,1.272-0.493,2.036-0.493c0.753,0,1.421,0.165,2.004,0.493c0.594,0.329,1.056,0.817,1.384,1.464
		c0.34,0.637,0.51,1.405,0.51,2.307c0,0.891-0.17,1.654-0.51,2.291c-0.328,0.625-0.79,1.103-1.384,1.432
		C234.883,61.073,234.215,61.238,233.462,61.238z M233.478,59.966c0.764,0,1.362-0.244,1.798-0.732
		c0.445-0.498,0.668-1.235,0.668-2.211c0-0.997-0.223-1.744-0.668-2.243c-0.436-0.498-1.034-0.747-1.798-0.747
		s-1.368,0.249-1.813,0.747c-0.435,0.499-0.652,1.246-0.652,2.243c0,0.976,0.218,1.713,0.652,2.211
		C232.11,59.721,232.714,59.966,233.478,59.966z"/>
	<path id="path1147" d="M239.384,61.063c-0.042,0-0.079-0.011-0.111-0.032c-0.021-0.032-0.031-0.069-0.031-0.111v-7.858
		c0-0.042,0.011-0.074,0.031-0.096c0.032-0.031,0.069-0.048,0.111-0.048h1.162c0.042,0,0.074,0.017,0.095,0.048
		c0.032,0.021,0.048,0.054,0.048,0.096v0.954c0.191-0.382,0.451-0.679,0.779-0.891c0.34-0.223,0.727-0.334,1.161-0.334
		c0.213,0,0.44,0.032,0.685,0.096c0.085,0.021,0.127,0.074,0.127,0.159v1.098c0,0.074-0.031,0.111-0.096,0.111h-0.111
		c-0.232-0.074-0.477-0.111-0.731-0.111c-0.562,0-1.002,0.212-1.32,0.636c-0.318,0.425-0.478,0.955-0.478,1.591v4.55
		c0,0.042-0.016,0.079-0.047,0.111c-0.021,0.021-0.054,0.032-0.096,0.032H239.384z"/>
	<path id="path1149" d="M246.78,61.238c-0.806,0-1.453-0.212-1.94-0.637c-0.478-0.424-0.716-0.997-0.716-1.718
		c0-0.53,0.138-0.991,0.413-1.384c0.287-0.403,0.674-0.705,1.162-0.907c0.232-0.096,0.456-0.159,0.668-0.19
		c0.223-0.043,0.541-0.091,0.954-0.144c0.445-0.042,0.827-0.096,1.146-0.159c0.329-0.074,0.652-0.201,0.971-0.382
		c0.105-0.063,0.159-0.153,0.159-0.271c-0.011-0.562-0.176-0.976-0.493-1.24c-0.318-0.276-0.801-0.414-1.448-0.414
		c-0.626,0-1.14,0.117-1.543,0.351c-0.403,0.223-0.626,0.588-0.668,1.098c0,0.105-0.048,0.158-0.144,0.158h-0.906
		c-0.043,0-0.08-0.016-0.111-0.047c-0.021-0.032-0.032-0.069-0.032-0.111c0.043-0.817,0.382-1.432,1.019-1.846
		c0.636-0.424,1.399-0.637,2.29-0.637c0.955,0,1.729,0.239,2.323,0.716c0.594,0.467,0.891,1.151,0.891,2.053v5.393
		c0,0.096-0.048,0.144-0.144,0.144h-0.875c-0.105,0-0.159-0.048-0.159-0.144v-1.002C248.864,60.798,247.925,61.238,246.78,61.238
		L246.78,61.238z M247.066,60.188c0.488-0.011,0.944-0.139,1.368-0.382c0.425-0.244,0.78-0.589,1.066-1.034
		c0.063-0.063,0.095-0.159,0.095-0.286V56.72c-0.297,0.158-0.604,0.275-0.922,0.35c-0.318,0.074-0.674,0.138-1.066,0.19
		c-0.35,0.054-0.625,0.102-0.827,0.144c-0.19,0.042-0.371,0.111-0.541,0.207c-0.52,0.265-0.779,0.71-0.779,1.336
		c0,0.403,0.144,0.711,0.43,0.923C246.186,60.082,246.578,60.188,247.066,60.188z"/>
	<path id="path1151" d="M255.156,61.063c-1.379,0-2.067-0.716-2.067-2.148v-4.883h-1.066c-0.096,0-0.143-0.048-0.143-0.144v-0.827
		c0-0.042,0.01-0.074,0.031-0.096c0.032-0.031,0.069-0.048,0.111-0.048h1.066v-2.052c0-0.042,0.01-0.074,0.031-0.096
		c0.032-0.031,0.069-0.048,0.111-0.048h1.161c0.043,0,0.074,0.017,0.096,0.048c0.032,0.021,0.048,0.054,0.048,0.096v2.052h1.781
		c0.085,0,0.128,0.048,0.128,0.144v0.827c0,0.096-0.043,0.144-0.128,0.144h-1.781v4.549c0,0.488,0.079,0.833,0.238,1.034
		c0.17,0.191,0.456,0.286,0.859,0.286h0.684c0.085,0,0.128,0.043,0.128,0.128v0.891c0,0.096-0.043,0.144-0.128,0.144H255.156z"/>
	<path id="path1153" d="M258.213,51.677c-0.043,0-0.08-0.011-0.112-0.032c-0.021-0.031-0.031-0.068-0.031-0.111v-1.305
		c0-0.042,0.011-0.074,0.031-0.095c0.032-0.032,0.069-0.048,0.112-0.048h1.32c0.095,0,0.143,0.048,0.143,0.143v1.305
		c0,0.096-0.048,0.144-0.143,0.144H258.213z M258.292,61.063c-0.043,0-0.08-0.011-0.111-0.032c-0.021-0.032-0.032-0.069-0.032-0.111
		v-7.858c0-0.042,0.011-0.074,0.032-0.096c0.032-0.031,0.069-0.048,0.111-0.048h1.177c0.085,0,0.128,0.048,0.128,0.144v7.858
		c0,0.096-0.043,0.144-0.128,0.144H258.292z"/>
	<path id="path1155" d="M265.463,61.238c-0.763,0-1.441-0.159-2.036-0.478c-0.583-0.329-1.039-0.812-1.368-1.447
		c-0.328-0.637-0.492-1.4-0.492-2.291c0-0.912,0.164-1.687,0.492-2.322c0.329-0.637,0.785-1.119,1.368-1.448
		c0.595-0.328,1.273-0.493,2.036-0.493c0.753,0,1.422,0.165,2.005,0.493c0.594,0.329,1.055,0.817,1.384,1.464
		c0.34,0.637,0.509,1.405,0.509,2.307c0,0.891-0.169,1.654-0.509,2.291c-0.329,0.625-0.79,1.103-1.384,1.432
		C266.885,61.073,266.216,61.238,265.463,61.238z M265.48,59.966c0.764,0,1.362-0.244,1.797-0.732
		c0.446-0.498,0.669-1.235,0.669-2.211c0-0.997-0.223-1.744-0.669-2.243c-0.435-0.498-1.033-0.747-1.797-0.747
		s-1.368,0.249-1.813,0.747c-0.436,0.499-0.652,1.246-0.652,2.243c0,0.976,0.217,1.713,0.652,2.211
		C264.112,59.721,264.716,59.966,265.48,59.966z"/>
	<path id="path1157" d="M271.386,61.063c-0.042,0-0.079-0.011-0.111-0.032c-0.021-0.032-0.031-0.069-0.031-0.111v-7.858
		c0-0.042,0.01-0.074,0.031-0.096c0.032-0.031,0.069-0.048,0.111-0.048h1.178c0.042,0,0.074,0.017,0.095,0.048
		c0.032,0.021,0.048,0.054,0.048,0.096V54c0.255-0.393,0.594-0.694,1.019-0.906c0.435-0.224,0.917-0.335,1.447-0.335
		c0.838,0,1.501,0.271,1.988,0.812c0.499,0.541,0.748,1.268,0.748,2.18v5.17c0,0.042-0.016,0.079-0.048,0.111
		c-0.021,0.021-0.053,0.032-0.096,0.032h-1.161c-0.096,0-0.143-0.048-0.143-0.144V56.02c0-1.326-0.536-1.988-1.607-1.988
		c-0.636,0-1.155,0.212-1.559,0.636c-0.393,0.414-0.589,0.971-0.589,1.671v4.581c0,0.042-0.016,0.079-0.048,0.111
		c-0.021,0.021-0.053,0.032-0.095,0.032H271.386z"/>
</g>
<g id="text143">
	<path id="path1182" d="M177.543,129.3c-0.096,0-0.143-0.048-0.143-0.144v-10.689c0-0.096,0.047-0.144,0.143-0.144h2.815
		c1.804,0,3.182,0.478,4.137,1.432c0.965,0.954,1.447,2.328,1.447,4.12c0,1.739-0.488,3.081-1.464,4.024
		c-0.965,0.934-2.344,1.4-4.136,1.4H177.543z M180.153,127.916c1.432,0,2.497-0.34,3.197-1.019c0.71-0.679,1.065-1.707,1.065-3.086
		s-0.339-2.407-1.018-3.086c-0.679-0.689-1.702-1.034-3.07-1.034h-1.416v8.225H180.153z"/>
	<path id="path1184" d="M191.268,129.474c-0.764,0-1.442-0.159-2.036-0.478c-0.584-0.328-1.04-0.812-1.368-1.447
		c-0.329-0.637-0.493-1.4-0.493-2.291c0-0.912,0.164-1.686,0.493-2.322c0.328-0.637,0.784-1.119,1.368-1.447
		c0.594-0.329,1.272-0.493,2.036-0.493c0.753,0,1.421,0.164,2.004,0.493c0.594,0.328,1.056,0.816,1.384,1.463
		c0.34,0.637,0.51,1.405,0.51,2.307c0,0.891-0.17,1.654-0.51,2.291c-0.328,0.626-0.79,1.103-1.384,1.432
		C192.689,129.31,192.021,129.474,191.268,129.474z M191.283,128.202c0.764,0,1.362-0.244,1.798-0.732
		c0.445-0.498,0.668-1.235,0.668-2.211c0-0.997-0.223-1.744-0.668-2.243c-0.436-0.498-1.034-0.747-1.798-0.747
		s-1.368,0.249-1.813,0.747c-0.435,0.499-0.652,1.246-0.652,2.243c0,0.976,0.218,1.713,0.652,2.211
		C189.915,127.958,190.52,128.202,191.283,128.202z"/>
	<path id="path1186" d="M200.557,129.474c-0.763,0-1.441-0.159-2.036-0.478c-0.583-0.328-1.039-0.812-1.368-1.447
		c-0.328-0.637-0.492-1.4-0.492-2.291c0-0.912,0.164-1.686,0.492-2.322c0.329-0.637,0.785-1.119,1.368-1.447
		c0.595-0.329,1.273-0.493,2.036-0.493c0.997,0,1.83,0.275,2.498,0.827c0.679,0.551,1.065,1.32,1.161,2.307v0.031
		c0,0.043-0.016,0.074-0.048,0.096c-0.021,0.021-0.048,0.032-0.079,0.031h-1.13c-0.085,0.001-0.138-0.047-0.159-0.143
		c-0.063-0.604-0.297-1.066-0.7-1.384c-0.392-0.329-0.901-0.493-1.526-0.493c-0.764,0-1.368,0.249-1.813,0.747
		c-0.436,0.499-0.652,1.246-0.652,2.243c0,0.976,0.217,1.713,0.652,2.211c0.445,0.488,1.05,0.732,1.813,0.732
		c0.615,0,1.118-0.154,1.511-0.462c0.403-0.318,0.642-0.773,0.716-1.368c0.021-0.095,0.074-0.143,0.159-0.143h1.098
		c0.053,0,0.09,0.016,0.111,0.048c0.032,0.031,0.043,0.068,0.032,0.111c-0.096,0.965-0.478,1.723-1.146,2.274
		C202.387,129.204,201.554,129.474,200.557,129.474L200.557,129.474z"/>
	<path id="path1188" d="M208.589,129.442c-0.858,0-1.537-0.271-2.036-0.811c-0.498-0.552-0.747-1.278-0.747-2.18v-5.154
		c0-0.042,0.011-0.074,0.031-0.096c0.032-0.031,0.069-0.047,0.111-0.047h1.161c0.096,0,0.144,0.047,0.144,0.143v4.899
		c0,1.283,0.546,1.925,1.639,1.925c0.636,0,1.146-0.206,1.527-0.62c0.392-0.414,0.588-0.949,0.588-1.606v-4.598
		c0-0.042,0.011-0.074,0.032-0.096c0.032-0.031,0.069-0.047,0.111-0.047h1.177c0.085,0,0.128,0.047,0.128,0.143v7.858
		c0,0.096-0.043,0.144-0.128,0.144h-1.177c-0.042,0-0.079-0.011-0.111-0.032c-0.021-0.031-0.032-0.068-0.032-0.111v-0.954
		C210.413,129.029,209.608,129.442,208.589,129.442L208.589,129.442z"/>
	<path id="path1190" d="M215.086,129.3c-0.042,0-0.079-0.011-0.111-0.032c-0.021-0.031-0.032-0.068-0.032-0.111v-7.858
		c0-0.042,0.011-0.074,0.032-0.096c0.032-0.031,0.069-0.047,0.111-0.047h1.161c0.043,0,0.074,0.016,0.096,0.047
		c0.032,0.021,0.048,0.054,0.048,0.096v0.827c0.244-0.371,0.557-0.652,0.938-0.843c0.393-0.191,0.838-0.286,1.336-0.286
		c0.509,0,0.955,0.116,1.337,0.35c0.381,0.233,0.662,0.572,0.843,1.019c0.487-0.912,1.314-1.368,2.481-1.368
		c0.859,0,1.517,0.265,1.973,0.795s0.684,1.268,0.684,2.211v5.154c0,0.043-0.016,0.08-0.048,0.111
		c-0.021,0.021-0.053,0.032-0.095,0.032h-1.178c-0.042,0-0.079-0.011-0.111-0.032c-0.021-0.031-0.031-0.068-0.031-0.111v-5.074
		c0-1.23-0.51-1.846-1.527-1.846c-0.604,0-1.061,0.212-1.368,0.637c-0.297,0.413-0.445,0.954-0.445,1.622v4.661
		c0,0.043-0.016,0.08-0.048,0.111c-0.021,0.021-0.053,0.032-0.096,0.032h-1.177c-0.043,0-0.08-0.011-0.111-0.032
		c-0.021-0.031-0.032-0.068-0.032-0.111v-5.09c0-0.584-0.116-1.034-0.35-1.353c-0.223-0.318-0.6-0.478-1.13-0.478
		c-0.614,0-1.076,0.212-1.384,0.637c-0.297,0.413-0.445,0.954-0.445,1.622v4.661c0,0.043-0.016,0.08-0.048,0.111
		c-0.021,0.021-0.053,0.032-0.096,0.032H215.086z"/>
	<path id="path1192" d="M231.468,120.996c1.22,0,2.11,0.402,2.673,1.209c0.562,0.795,0.843,1.766,0.843,2.911v0.413
		c-0.011,0.096-0.069,0.144-0.175,0.144h-5.68c0.054,0.806,0.281,1.437,0.685,1.893c0.402,0.456,0.965,0.685,1.686,0.685
		c0.573,0,1.034-0.133,1.385-0.398c0.35-0.275,0.572-0.662,0.668-1.161c0.021-0.095,0.074-0.143,0.159-0.143h0.954
		c0.117,0,0.164,0.068,0.144,0.206c-0.148,0.881-0.52,1.554-1.114,2.021c-0.594,0.456-1.304,0.685-2.131,0.685
		s-1.527-0.186-2.101-0.558c-0.572-0.381-1.007-0.891-1.304-1.526c-0.287-0.647-0.43-1.357-0.43-2.132s0.133-1.479,0.397-2.116
		c0.275-0.646,0.689-1.161,1.241-1.543C229.93,121.192,230.63,120.996,231.468,120.996L231.468,120.996z M231.436,122.22
		c-0.721,0-1.277,0.218-1.67,0.652c-0.382,0.424-0.6,0.991-0.652,1.702h4.502c-0.021-0.732-0.212-1.305-0.572-1.719
		C232.682,122.432,232.147,122.22,231.436,122.22z"/>
	<path id="path1194" d="M236.959,129.3c-0.042,0-0.079-0.011-0.111-0.032c-0.021-0.031-0.032-0.068-0.032-0.111v-7.858
		c0-0.042,0.011-0.074,0.032-0.096c0.032-0.031,0.069-0.047,0.111-0.047h1.177c0.043,0,0.074,0.016,0.096,0.047
		c0.032,0.021,0.048,0.054,0.048,0.096v0.938c0.255-0.393,0.594-0.694,1.019-0.906c0.435-0.223,0.917-0.334,1.447-0.334
		c0.838,0,1.501,0.271,1.988,0.811c0.499,0.541,0.748,1.268,0.748,2.18v5.17c0,0.043-0.017,0.08-0.048,0.111
		c-0.021,0.021-0.053,0.032-0.096,0.032h-1.161c-0.096,0-0.144-0.048-0.144-0.144v-4.899c0-1.325-0.535-1.988-1.606-1.988
		c-0.636,0-1.156,0.212-1.559,0.636c-0.393,0.414-0.589,0.971-0.589,1.671v4.581c0,0.043-0.016,0.08-0.048,0.111
		c-0.021,0.021-0.053,0.032-0.096,0.032H236.959z"/>
	<path id="path1196" d="M247.914,129.3c-1.378,0-2.067-0.716-2.067-2.147v-4.884h-1.066c-0.095,0-0.143-0.048-0.143-0.144v-0.827
		c0-0.042,0.011-0.074,0.031-0.096c0.032-0.031,0.069-0.047,0.111-0.047h1.066v-2.053c0-0.042,0.011-0.074,0.031-0.096
		c0.032-0.031,0.069-0.047,0.111-0.047h1.161c0.043,0,0.075,0.016,0.096,0.047c0.032,0.021,0.048,0.054,0.048,0.096v2.053h1.782
		c0.084,0,0.127,0.047,0.127,0.143v0.827c0,0.096-0.043,0.144-0.127,0.144h-1.782v4.55c0,0.487,0.08,0.832,0.238,1.033
		c0.17,0.191,0.456,0.287,0.859,0.287h0.685c0.084,0,0.127,0.042,0.127,0.127v0.891c0,0.096-0.043,0.144-0.127,0.144H247.914z"/>
	<path id="path1198" d="M253.054,129.474c-0.806,0-1.453-0.212-1.94-0.637c-0.478-0.424-0.716-0.996-0.716-1.718
		c0-0.53,0.138-0.991,0.413-1.384c0.287-0.403,0.674-0.705,1.161-0.907c0.233-0.095,0.456-0.159,0.669-0.19
		c0.223-0.043,0.541-0.09,0.954-0.144c0.445-0.042,0.827-0.095,1.146-0.159c0.329-0.074,0.652-0.201,0.971-0.382
		c0.105-0.063,0.158-0.153,0.158-0.27c-0.01-0.562-0.175-0.977-0.493-1.241c-0.317-0.275-0.8-0.414-1.447-0.414
		c-0.626,0-1.14,0.117-1.543,0.351c-0.403,0.223-0.626,0.589-0.668,1.098c0,0.105-0.048,0.159-0.144,0.159h-0.906
		c-0.043,0-0.08-0.017-0.111-0.048c-0.021-0.032-0.032-0.069-0.032-0.111c0.043-0.816,0.382-1.432,1.019-1.846
		c0.636-0.424,1.399-0.636,2.29-0.636c0.955,0,1.729,0.238,2.323,0.716c0.594,0.466,0.891,1.15,0.891,2.052v5.393
		c0,0.096-0.048,0.144-0.144,0.144h-0.875c-0.105,0-0.159-0.048-0.159-0.144v-1.002
		C255.138,129.034,254.199,129.474,253.054,129.474L253.054,129.474z M253.34,128.425c0.488-0.011,0.944-0.138,1.368-0.382
		c0.425-0.244,0.779-0.589,1.066-1.034c0.063-0.063,0.095-0.159,0.095-0.286v-1.766c-0.297,0.159-0.604,0.275-0.922,0.35
		c-0.318,0.074-0.674,0.138-1.066,0.191c-0.35,0.053-0.625,0.101-0.827,0.143c-0.19,0.043-0.371,0.111-0.541,0.207
		c-0.52,0.265-0.779,0.71-0.779,1.336c0,0.403,0.144,0.711,0.43,0.923C252.46,128.318,252.853,128.425,253.34,128.425z"/>
	<path id="path1200" d="M261.43,129.3c-1.379,0-2.068-0.716-2.068-2.147v-4.884h-1.065c-0.096,0-0.144-0.048-0.144-0.144v-0.827
		c0-0.042,0.011-0.074,0.032-0.096c0.032-0.031,0.069-0.047,0.111-0.047h1.065v-2.053c0-0.042,0.011-0.074,0.032-0.096
		c0.032-0.031,0.069-0.047,0.111-0.047h1.161c0.043,0,0.074,0.016,0.096,0.047c0.031,0.021,0.048,0.054,0.048,0.096v2.053h1.781
		c0.085,0,0.127,0.047,0.127,0.143v0.827c0,0.096-0.042,0.144-0.127,0.144h-1.781v4.55c0,0.487,0.079,0.832,0.238,1.033
		c0.17,0.191,0.456,0.287,0.859,0.287h0.684c0.085,0,0.127,0.042,0.127,0.127v0.891c0,0.096-0.042,0.144-0.127,0.144H261.43z"/>
	<path id="path1202" d="M264.487,119.914c-0.042,0-0.079-0.011-0.111-0.032c-0.021-0.031-0.031-0.068-0.031-0.111v-1.304
		c0-0.043,0.011-0.074,0.031-0.096c0.032-0.032,0.069-0.048,0.111-0.048h1.32c0.096,0,0.144,0.048,0.144,0.144v1.304
		c0,0.096-0.048,0.144-0.144,0.144H264.487z M264.567,129.3c-0.043,0-0.08-0.011-0.111-0.032c-0.021-0.031-0.032-0.068-0.032-0.111
		v-7.858c0-0.042,0.011-0.074,0.032-0.096c0.031-0.031,0.068-0.047,0.111-0.047h1.177c0.085,0,0.128,0.047,0.128,0.143v7.858
		c0,0.096-0.043,0.144-0.128,0.144H264.567z"/>
	<path id="path1204" d="M271.738,129.474c-0.764,0-1.442-0.159-2.036-0.478c-0.583-0.328-1.039-0.812-1.368-1.447
		c-0.328-0.637-0.493-1.4-0.493-2.291c0-0.912,0.165-1.686,0.493-2.322c0.329-0.637,0.785-1.119,1.368-1.447
		c0.594-0.329,1.272-0.493,2.036-0.493c0.753,0,1.422,0.164,2.005,0.493c0.594,0.328,1.055,0.816,1.384,1.463
		c0.34,0.637,0.509,1.405,0.509,2.307c0,0.891-0.169,1.654-0.509,2.291c-0.329,0.626-0.79,1.103-1.384,1.432
		C273.159,129.31,272.49,129.474,271.738,129.474z M271.754,128.202c0.763,0,1.362-0.244,1.797-0.732
		c0.445-0.498,0.668-1.235,0.668-2.211c0-0.997-0.223-1.744-0.668-2.243c-0.435-0.498-1.034-0.747-1.797-0.747
		c-0.764,0-1.368,0.249-1.813,0.747c-0.436,0.499-0.652,1.246-0.652,2.243c0,0.976,0.217,1.713,0.652,2.211
		C270.386,127.958,270.99,128.202,271.754,128.202z"/>
	<path id="path1206" d="M277.66,129.3c-0.042,0-0.079-0.011-0.111-0.032c-0.021-0.031-0.031-0.068-0.031-0.111v-7.858
		c0-0.042,0.01-0.074,0.031-0.096c0.032-0.031,0.069-0.047,0.111-0.047h1.178c0.042,0,0.074,0.016,0.095,0.047
		c0.032,0.021,0.048,0.054,0.048,0.096v0.938c0.255-0.393,0.594-0.694,1.019-0.906c0.435-0.223,0.917-0.334,1.447-0.334
		c0.838,0,1.501,0.271,1.988,0.811c0.499,0.541,0.748,1.268,0.748,2.18v5.17c0,0.043-0.016,0.08-0.048,0.111
		c-0.021,0.021-0.053,0.032-0.096,0.032h-1.161c-0.096,0-0.144-0.048-0.144-0.144v-4.899c0-1.325-0.535-1.988-1.606-1.988
		c-0.636,0-1.155,0.212-1.559,0.636c-0.393,0.414-0.589,0.971-0.589,1.671v4.581c0,0.043-0.016,0.08-0.048,0.111
		c-0.021,0.021-0.053,0.032-0.095,0.032H277.66z"/>
</g>
<g id="text147">
	<path id="path1163" d="M204.893,94.028c-1.166,0-2.052-0.388-2.656-1.161c-0.594-0.785-0.891-1.813-0.891-3.087
		c0-1.262,0.297-2.279,0.891-3.054c0.604-0.785,1.484-1.178,2.641-1.178c1.198,0,2.11,0.44,2.736,1.32v-3.85
		c0-0.042,0.011-0.074,0.031-0.095c0.032-0.032,0.069-0.048,0.111-0.048h1.178c0.042,0,0.074,0.016,0.095,0.048
		c0.032,0.021,0.048,0.053,0.048,0.095v10.69c0,0.042-0.016,0.079-0.048,0.111c-0.021,0.021-0.053,0.031-0.095,0.031h-1.161
		c-0.043,0-0.08-0.01-0.111-0.031c-0.021-0.032-0.032-0.069-0.032-0.111v-1.002C206.992,93.588,206.081,94.028,204.893,94.028
		L204.893,94.028z M205.29,92.755c0.743,0,1.326-0.265,1.75-0.795c0.436-0.53,0.652-1.257,0.652-2.18
		c0-0.901-0.217-1.617-0.652-2.147c-0.424-0.53-1.007-0.795-1.75-0.795c-0.827,0-1.447,0.26-1.86,0.779
		c-0.414,0.509-0.621,1.23-0.621,2.163c0,0.955,0.207,1.691,0.621,2.212C203.843,92.501,204.463,92.755,205.29,92.755z"/>
	<path id="path1165" d="M213.714,94.028c-0.806,0-1.453-0.213-1.94-0.637c-0.478-0.424-0.716-0.997-0.716-1.718
		c0-0.53,0.138-0.992,0.413-1.384c0.286-0.403,0.674-0.706,1.161-0.907c0.233-0.096,0.456-0.159,0.668-0.19
		c0.223-0.043,0.541-0.091,0.955-0.144c0.445-0.042,0.827-0.096,1.146-0.159c0.328-0.074,0.651-0.201,0.97-0.382
		c0.106-0.063,0.159-0.153,0.159-0.271c-0.011-0.562-0.175-0.976-0.493-1.24c-0.318-0.276-0.801-0.414-1.447-0.414
		c-0.626,0-1.141,0.117-1.543,0.351c-0.403,0.223-0.626,0.588-0.668,1.098c0,0.105-0.048,0.158-0.144,0.158h-0.906
		c-0.043,0-0.08-0.016-0.111-0.047c-0.021-0.032-0.032-0.069-0.032-0.111c0.042-0.817,0.382-1.433,1.018-1.846
		c0.637-0.424,1.4-0.637,2.291-0.637c0.955,0,1.729,0.239,2.322,0.716c0.595,0.467,0.892,1.151,0.892,2.053v5.393
		c0,0.096-0.048,0.143-0.144,0.143h-0.875c-0.106,0-0.159-0.047-0.159-0.143v-1.002C215.798,93.588,214.86,94.028,213.714,94.028z
		 M214,92.978c0.488-0.011,0.944-0.139,1.368-0.382c0.424-0.244,0.779-0.589,1.065-1.034c0.064-0.063,0.096-0.159,0.096-0.286V89.51
		c-0.297,0.159-0.604,0.276-0.923,0.351c-0.317,0.074-0.673,0.138-1.065,0.19c-0.35,0.054-0.626,0.101-0.827,0.144
		c-0.191,0.042-0.371,0.111-0.541,0.207c-0.52,0.265-0.779,0.71-0.779,1.336c0,0.403,0.144,0.711,0.43,0.923
		C213.12,92.872,213.513,92.978,214,92.978L214,92.978z"/>
	<path id="path1167" d="M220.021,96.684c-0.043,0-0.08-0.016-0.111-0.048c-0.021-0.021-0.032-0.053-0.032-0.096V85.851
		c0-0.043,0.011-0.074,0.032-0.096c0.031-0.031,0.068-0.048,0.111-0.048h1.146c0.095,0,0.143,0.048,0.143,0.144v1.034
		c0.329-0.445,0.731-0.78,1.209-1.003s0.997-0.334,1.56-0.334c0.721,0,1.347,0.186,1.877,0.558c0.53,0.36,0.933,0.864,1.209,1.511
		c0.286,0.637,0.429,1.357,0.429,2.163c0,0.817-0.143,1.549-0.429,2.195c-0.276,0.637-0.679,1.141-1.209,1.512
		c-0.53,0.36-1.161,0.541-1.894,0.541c-0.572,0-1.098-0.102-1.574-0.303c-0.467-0.212-0.854-0.541-1.162-0.986v3.802
		c0,0.043-0.016,0.074-0.047,0.096c-0.021,0.032-0.054,0.048-0.096,0.048H220.021z M223.648,92.802c0.773,0,1.384-0.265,1.829-0.795
		c0.445-0.541,0.668-1.289,0.668-2.243c0-0.934-0.223-1.665-0.668-2.195s-1.056-0.795-1.829-0.795c-0.742,0-1.337,0.271-1.782,0.811
		c-0.445,0.53-0.668,1.257-0.668,2.18c0,0.944,0.223,1.687,0.668,2.228C222.311,92.532,222.906,92.802,223.648,92.802z"/>
	<path id="path1169" d="M231.752,93.852c-1.378,0-2.067-0.716-2.067-2.147v-4.883h-1.066c-0.095,0-0.143-0.048-0.143-0.144v-0.827
		c0-0.043,0.011-0.074,0.031-0.096c0.032-0.031,0.069-0.048,0.111-0.048h1.066v-2.052c0-0.043,0.011-0.074,0.031-0.096
		c0.032-0.031,0.069-0.048,0.111-0.048h1.162c0.042,0,0.074,0.017,0.095,0.048c0.032,0.021,0.048,0.053,0.048,0.096v2.052h1.782
		c0.084,0,0.127,0.048,0.127,0.144v0.827c0,0.096-0.043,0.144-0.127,0.144h-1.782v4.549c0,0.488,0.08,0.833,0.239,1.034
		c0.169,0.191,0.455,0.286,0.858,0.286h0.685c0.084,0,0.127,0.043,0.127,0.128v0.891c0,0.096-0.043,0.144-0.127,0.144
		L231.752,93.852z"/>
	<path id="path1171" d="M236.892,94.028c-0.806,0-1.453-0.213-1.94-0.637c-0.478-0.424-0.716-0.997-0.716-1.718
		c0-0.53,0.138-0.992,0.413-1.384c0.287-0.403,0.674-0.706,1.162-0.907c0.232-0.096,0.455-0.159,0.668-0.19
		c0.223-0.043,0.541-0.091,0.954-0.144c0.445-0.042,0.827-0.096,1.146-0.159c0.329-0.074,0.652-0.201,0.971-0.382
		c0.105-0.063,0.158-0.153,0.158-0.271c-0.01-0.562-0.175-0.976-0.493-1.24c-0.317-0.276-0.8-0.414-1.447-0.414
		c-0.626,0-1.14,0.117-1.543,0.351c-0.403,0.223-0.626,0.588-0.668,1.098c0,0.105-0.048,0.158-0.144,0.158h-0.906
		c-0.043,0-0.08-0.016-0.111-0.047c-0.021-0.032-0.032-0.069-0.032-0.111c0.043-0.817,0.382-1.433,1.019-1.846
		c0.636-0.424,1.399-0.637,2.29-0.637c0.955,0,1.729,0.239,2.323,0.716c0.594,0.467,0.891,1.151,0.891,2.053v5.393
		c0,0.096-0.048,0.143-0.144,0.143h-0.875c-0.105,0-0.159-0.047-0.159-0.143v-1.002C238.976,93.588,238.037,94.028,236.892,94.028z
		 M237.178,92.978c0.488-0.011,0.944-0.139,1.368-0.382c0.425-0.244,0.779-0.589,1.066-1.034c0.063-0.063,0.095-0.159,0.095-0.286
		V89.51c-0.297,0.159-0.604,0.276-0.922,0.351c-0.318,0.074-0.674,0.138-1.066,0.19c-0.35,0.054-0.625,0.101-0.827,0.144
		c-0.19,0.042-0.371,0.111-0.541,0.207c-0.52,0.265-0.779,0.71-0.779,1.336c0,0.403,0.144,0.711,0.43,0.923
		C236.298,92.872,236.691,92.978,237.178,92.978L237.178,92.978z"/>
	<path id="path1173" d="M245.268,93.852c-1.379,0-2.068-0.716-2.068-2.147v-4.883h-1.065c-0.096,0-0.144-0.048-0.144-0.144v-0.827
		c0-0.043,0.011-0.074,0.032-0.096c0.032-0.031,0.069-0.048,0.111-0.048h1.065v-2.052c0-0.043,0.011-0.074,0.032-0.096
		c0.032-0.031,0.069-0.048,0.111-0.048h1.161c0.043,0,0.074,0.017,0.096,0.048c0.032,0.021,0.048,0.053,0.048,0.096v2.052h1.781
		c0.085,0,0.128,0.048,0.128,0.144v0.827c0,0.096-0.043,0.144-0.128,0.144h-1.781v4.549c0,0.488,0.079,0.833,0.238,1.034
		c0.17,0.191,0.456,0.286,0.859,0.286h0.684c0.085,0,0.128,0.043,0.128,0.128v0.891c0,0.096-0.043,0.144-0.128,0.144L245.268,93.852
		z"/>
	<path id="path1175" d="M248.324,84.468c-0.042,0-0.079-0.011-0.111-0.032c-0.021-0.031-0.031-0.068-0.031-0.111v-1.305
		c0-0.042,0.011-0.074,0.031-0.095c0.032-0.032,0.069-0.048,0.111-0.048h1.321c0.095,0,0.143,0.048,0.143,0.143v1.305
		c0,0.096-0.048,0.144-0.143,0.144H248.324z M248.405,93.852c-0.043,0-0.08-0.01-0.111-0.031c-0.021-0.032-0.032-0.069-0.032-0.111
		v-7.858c0-0.043,0.011-0.074,0.032-0.096c0.031-0.031,0.068-0.048,0.111-0.048h1.177c0.085,0,0.128,0.048,0.128,0.144v7.858
		c0,0.096-0.043,0.144-0.128,0.144L248.405,93.852z"/>
	<path id="path1177" d="M255.575,94.028c-0.763,0-1.441-0.159-2.036-0.478c-0.583-0.329-1.039-0.812-1.368-1.447
		c-0.328-0.637-0.492-1.4-0.492-2.291c0-0.912,0.164-1.687,0.492-2.322c0.329-0.637,0.785-1.119,1.368-1.448
		c0.595-0.328,1.273-0.493,2.036-0.493c0.753,0,1.422,0.165,2.005,0.493c0.594,0.329,1.055,0.817,1.384,1.464
		c0.34,0.637,0.509,1.405,0.509,2.307c0,0.891-0.169,1.654-0.509,2.291c-0.329,0.625-0.79,1.103-1.384,1.432
		C256.997,93.863,256.328,94.028,255.575,94.028z M255.592,92.755c0.764,0,1.362-0.243,1.797-0.731
		c0.445-0.498,0.669-1.235,0.669-2.211c0-0.997-0.224-1.744-0.669-2.243c-0.435-0.498-1.033-0.747-1.797-0.747
		s-1.368,0.249-1.813,0.747c-0.436,0.499-0.652,1.246-0.652,2.243c0,0.976,0.217,1.713,0.652,2.211
		C254.224,92.511,254.828,92.755,255.592,92.755z"/>
	<path id="path1179" d="M261.498,93.852c-0.042,0-0.079-0.01-0.111-0.031c-0.021-0.032-0.031-0.069-0.031-0.111v-7.858
		c0-0.043,0.01-0.074,0.031-0.096c0.032-0.031,0.069-0.048,0.111-0.048h1.178c0.042,0,0.074,0.017,0.095,0.048
		c0.032,0.021,0.048,0.053,0.048,0.096v0.938c0.255-0.393,0.594-0.694,1.019-0.907c0.435-0.223,0.917-0.334,1.447-0.334
		c0.838,0,1.501,0.271,1.988,0.812c0.499,0.541,0.748,1.268,0.748,2.18v5.17c0,0.042-0.016,0.079-0.048,0.111
		c-0.021,0.021-0.053,0.031-0.096,0.031h-1.161c-0.096,0-0.143-0.047-0.144-0.143V88.81c0.001-1.326-0.535-1.988-1.606-1.988
		c-0.636,0-1.155,0.212-1.559,0.636c-0.393,0.414-0.589,0.971-0.589,1.67v4.582c0,0.042-0.016,0.079-0.048,0.111
		c-0.021,0.021-0.053,0.031-0.095,0.031H261.498z"/>
</g>
<g id="text151">
	<path id="path1209" d="M173.659,162.09c-0.095,0-0.143-0.048-0.143-0.144v-10.689c0-0.096,0.048-0.144,0.143-0.144h6.904
		c0.042,0,0.074,0.016,0.096,0.048c0.031,0.021,0.048,0.053,0.048,0.096v1.05c0,0.042-0.017,0.079-0.048,0.111
		c-0.021,0.021-0.054,0.031-0.096,0.031h-5.536v3.484h4.868c0.095,0,0.143,0.047,0.143,0.143v1.05c0,0.096-0.048,0.144-0.143,0.144
		h-4.868v3.483h5.536c0.042,0,0.074,0.017,0.096,0.048c0.031,0.021,0.048,0.053,0.048,0.096v1.05c0,0.042-0.017,0.079-0.048,0.111
		c-0.021,0.021-0.054,0.032-0.096,0.032H173.659z"/>
	<path id="path1211" d="M181.769,162.09c-0.053,0-0.09-0.017-0.111-0.048c-0.011-0.032,0-0.074,0.031-0.128l3.039-3.929
		l-3.039-3.865c-0.021-0.043-0.031-0.074-0.031-0.096c0-0.053,0.037-0.08,0.111-0.08h1.463c0.074,0,0.139,0.027,0.191,0.08
		l2.291,2.99l2.259-2.99c0.031-0.053,0.09-0.08,0.175-0.08h1.463c0.054,0,0.091,0.021,0.111,0.064
		c0.021,0.031,0.011,0.068-0.031,0.111l-3.038,3.865l3.038,3.929c0.021,0.021,0.031,0.054,0.031,0.096
		c0,0.053-0.037,0.08-0.111,0.08h-1.463c-0.085,0-0.144-0.027-0.175-0.08l-2.259-3.054l-2.291,3.054
		c-0.053,0.053-0.117,0.08-0.191,0.08H181.769z"/>
	<path id="path1213" d="M191.256,164.921c-0.043,0-0.08-0.016-0.111-0.048c-0.021-0.021-0.032-0.053-0.032-0.095v-10.69
		c0-0.042,0.011-0.074,0.032-0.096c0.031-0.031,0.068-0.048,0.111-0.048h1.146c0.095,0,0.143,0.048,0.143,0.144v1.034
		c0.329-0.445,0.731-0.779,1.209-1.002s0.997-0.334,1.56-0.334c0.721,0,1.347,0.186,1.877,0.557c0.53,0.36,0.933,0.864,1.209,1.511
		c0.286,0.637,0.429,1.357,0.429,2.164c0,0.816-0.143,1.548-0.429,2.194c-0.276,0.637-0.679,1.141-1.209,1.512
		c-0.53,0.36-1.161,0.541-1.894,0.541c-0.572,0-1.098-0.101-1.574-0.303c-0.467-0.212-0.854-0.541-1.162-0.986v3.803
		c0,0.042-0.016,0.074-0.047,0.095c-0.021,0.032-0.054,0.048-0.096,0.048H191.256z M194.883,161.04c0.773,0,1.384-0.266,1.829-0.796
		c0.445-0.541,0.668-1.288,0.668-2.243c0-0.933-0.223-1.665-0.668-2.195s-1.056-0.795-1.829-0.795c-0.742,0-1.337,0.271-1.782,0.812
		c-0.445,0.53-0.668,1.256-0.668,2.179c0,0.944,0.223,1.687,0.668,2.228S194.141,161.04,194.883,161.04z"/>
	<path id="path1215" d="M203.847,153.786c1.22,0,2.11,0.402,2.673,1.209c0.562,0.795,0.843,1.766,0.843,2.911v0.413
		c-0.011,0.096-0.069,0.144-0.175,0.144h-5.679c0.053,0.806,0.28,1.437,0.684,1.893s0.965,0.685,1.687,0.685
		c0.572,0,1.033-0.133,1.384-0.398c0.35-0.275,0.572-0.662,0.668-1.161c0.021-0.096,0.074-0.143,0.159-0.143h0.954
		c0.117,0,0.165,0.068,0.144,0.206c-0.148,0.881-0.52,1.554-1.113,2.021c-0.595,0.456-1.305,0.685-2.132,0.685
		s-1.527-0.187-2.1-0.558c-0.573-0.382-1.008-0.891-1.305-1.526c-0.286-0.647-0.43-1.357-0.43-2.132s0.133-1.479,0.397-2.116
		c0.276-0.646,0.689-1.161,1.241-1.543C202.309,153.981,203.009,153.786,203.847,153.786L203.847,153.786z M203.815,155.01
		c-0.721,0-1.277,0.217-1.67,0.652c-0.382,0.424-0.599,0.991-0.652,1.702h4.502c-0.021-0.732-0.212-1.305-0.572-1.719
		C205.061,155.222,204.526,155.01,203.815,155.01z M203.497,152.99c-0.063,0-0.106-0.016-0.128-0.048
		c-0.01-0.042,0.006-0.085,0.048-0.127l1.479-1.623c0.043-0.053,0.101-0.079,0.175-0.079h1.385c0.063,0,0.101,0.021,0.111,0.063
		c0.01,0.032-0.006,0.069-0.048,0.111l-2.084,1.639c-0.054,0.042-0.111,0.063-0.175,0.063H203.497z"/>
	<path id="path1217" d="M209.338,162.09c-0.042,0-0.079-0.011-0.111-0.032c-0.021-0.032-0.031-0.069-0.031-0.111v-7.858
		c0-0.042,0.01-0.074,0.031-0.096c0.032-0.031,0.069-0.048,0.111-0.048h1.161c0.043,0,0.074,0.017,0.096,0.048
		c0.032,0.021,0.048,0.054,0.048,0.096v0.954c0.19-0.382,0.45-0.679,0.779-0.891c0.34-0.223,0.727-0.334,1.161-0.334
		c0.212,0,0.44,0.032,0.685,0.096c0.085,0.021,0.127,0.074,0.127,0.159v1.098c0,0.074-0.032,0.111-0.096,0.111h-0.111
		c-0.233-0.074-0.477-0.111-0.731-0.111c-0.562,0-1.002,0.212-1.32,0.636c-0.318,0.425-0.478,0.955-0.478,1.591v4.55
		c0,0.043-0.016,0.08-0.048,0.111c-0.021,0.021-0.053,0.032-0.095,0.032H209.338z"/>
	<path id="path1219" d="M214.868,152.704c-0.042,0-0.079-0.011-0.111-0.032c-0.021-0.031-0.031-0.068-0.031-0.111v-1.304
		c0-0.043,0.011-0.074,0.031-0.096c0.032-0.032,0.069-0.048,0.111-0.048h1.32c0.096,0,0.144,0.048,0.144,0.144v1.304
		c0,0.096-0.048,0.144-0.144,0.144H214.868z M214.948,162.09c-0.043,0-0.08-0.011-0.111-0.032c-0.021-0.032-0.032-0.069-0.032-0.111
		v-7.858c0-0.042,0.011-0.074,0.032-0.096c0.031-0.031,0.068-0.048,0.111-0.048h1.177c0.085,0,0.128,0.048,0.128,0.144v7.858
		c0,0.096-0.043,0.144-0.128,0.144H214.948z"/>
	<path id="path1221" d="M218.97,162.09c-0.042,0-0.079-0.011-0.111-0.032c-0.021-0.032-0.032-0.069-0.032-0.111v-7.858
		c0-0.042,0.011-0.074,0.032-0.096c0.032-0.031,0.069-0.048,0.111-0.048h1.161c0.043,0,0.074,0.017,0.096,0.048
		c0.031,0.021,0.048,0.054,0.048,0.096v0.827c0.243-0.371,0.557-0.652,0.938-0.843c0.393-0.191,0.838-0.286,1.336-0.286
		c0.509,0,0.954,0.116,1.336,0.35s0.663,0.572,0.844,1.018c0.487-0.911,1.314-1.367,2.481-1.367c0.859,0,1.517,0.265,1.973,0.795
		s0.684,1.268,0.684,2.211v5.154c0,0.042-0.016,0.079-0.048,0.111c-0.021,0.021-0.053,0.032-0.095,0.032h-1.178
		c-0.042,0-0.079-0.011-0.111-0.032c-0.021-0.032-0.031-0.069-0.031-0.111v-5.074c0-1.23-0.51-1.846-1.527-1.846
		c-0.604,0-1.061,0.212-1.368,0.637c-0.297,0.413-0.445,0.954-0.445,1.622v4.661c0,0.042-0.016,0.079-0.048,0.111
		c-0.021,0.021-0.053,0.032-0.096,0.032h-1.177c-0.043,0-0.08-0.011-0.111-0.032c-0.021-0.032-0.032-0.069-0.032-0.111v-5.091
		c0-0.583-0.116-1.033-0.35-1.352c-0.223-0.318-0.6-0.478-1.13-0.478c-0.615,0-1.076,0.212-1.384,0.637
		c-0.297,0.413-0.445,0.954-0.445,1.622v4.661c0,0.042-0.016,0.079-0.048,0.111c-0.021,0.021-0.053,0.032-0.096,0.032H218.97z"/>
	<path id="path1223" d="M235.352,153.786c1.22,0,2.11,0.402,2.672,1.209c0.562,0.795,0.844,1.766,0.844,2.911v0.413
		c-0.011,0.096-0.069,0.144-0.175,0.144h-5.68c0.054,0.806,0.281,1.437,0.685,1.893c0.402,0.456,0.965,0.685,1.686,0.685
		c0.573,0,1.034-0.133,1.385-0.398c0.35-0.275,0.572-0.662,0.668-1.161c0.021-0.096,0.074-0.143,0.159-0.143h0.954
		c0.116,0,0.164,0.068,0.144,0.206c-0.148,0.881-0.521,1.554-1.114,2.021c-0.594,0.456-1.304,0.685-2.131,0.685
		s-1.527-0.187-2.101-0.558c-0.572-0.382-1.007-0.891-1.304-1.526c-0.287-0.647-0.43-1.357-0.43-2.132s0.133-1.479,0.397-2.116
		c0.275-0.646,0.689-1.161,1.241-1.543C233.814,153.981,234.514,153.786,235.352,153.786L235.352,153.786z M235.32,155.01
		c-0.721,0-1.277,0.217-1.67,0.652c-0.382,0.424-0.6,0.991-0.652,1.702h4.502c-0.021-0.732-0.212-1.305-0.573-1.719
		C236.566,155.222,236.031,155.01,235.32,155.01z"/>
	<path id="path1225" d="M240.843,162.09c-0.042,0-0.08-0.011-0.111-0.032c-0.021-0.032-0.032-0.069-0.032-0.111v-7.858
		c0-0.042,0.011-0.074,0.032-0.096c0.032-0.031,0.069-0.048,0.111-0.048h1.177c0.043,0,0.074,0.017,0.096,0.048
		c0.032,0.021,0.048,0.054,0.048,0.096v0.938c0.255-0.393,0.594-0.694,1.019-0.906c0.435-0.223,0.917-0.334,1.447-0.334
		c0.838,0,1.5,0.27,1.988,0.811c0.498,0.541,0.748,1.268,0.748,2.18v5.17c0,0.042-0.017,0.079-0.048,0.111
		c-0.021,0.021-0.054,0.032-0.096,0.032h-1.161c-0.096,0-0.144-0.048-0.144-0.144v-4.899c0-1.326-0.535-1.988-1.606-1.988
		c-0.637,0-1.156,0.212-1.559,0.636c-0.393,0.414-0.589,0.971-0.589,1.671v4.581c0,0.042-0.016,0.079-0.048,0.111
		c-0.021,0.021-0.053,0.032-0.096,0.032H240.843z"/>
	<path id="path1227" d="M251.798,162.09c-1.378,0-2.067-0.716-2.067-2.147v-4.884h-1.066c-0.095,0-0.143-0.048-0.143-0.144v-0.827
		c0-0.042,0.011-0.074,0.031-0.096c0.032-0.031,0.069-0.048,0.111-0.048h1.066v-2.052c0-0.042,0.011-0.074,0.031-0.096
		c0.032-0.031,0.069-0.048,0.111-0.048h1.161c0.043,0,0.074,0.017,0.096,0.048c0.032,0.021,0.048,0.054,0.048,0.096v2.052h1.781
		c0.085,0,0.128,0.048,0.128,0.144v0.827c0,0.096-0.043,0.144-0.128,0.144h-1.781v4.549c0,0.488,0.079,0.833,0.238,1.034
		c0.17,0.191,0.456,0.287,0.859,0.287h0.684c0.085,0,0.128,0.042,0.128,0.127v0.891c0,0.096-0.043,0.144-0.128,0.144H251.798z"/>
	<path id="path1229" d="M256.938,162.264c-0.806,0-1.453-0.212-1.94-0.637c-0.478-0.424-0.716-0.997-0.716-1.718
		c0-0.53,0.138-0.991,0.413-1.384c0.286-0.403,0.674-0.705,1.161-0.907c0.233-0.095,0.456-0.159,0.669-0.19
		c0.223-0.043,0.54-0.09,0.954-0.144c0.445-0.042,0.827-0.096,1.146-0.159c0.328-0.074,0.652-0.201,0.97-0.382
		c0.106-0.063,0.159-0.153,0.159-0.271c-0.011-0.562-0.175-0.976-0.493-1.24c-0.317-0.275-0.801-0.414-1.447-0.414
		c-0.626,0-1.14,0.117-1.543,0.351c-0.403,0.223-0.626,0.588-0.668,1.098c0,0.105-0.048,0.159-0.144,0.159h-0.906
		c-0.043,0-0.08-0.017-0.111-0.048c-0.021-0.032-0.032-0.069-0.032-0.111c0.043-0.817,0.382-1.432,1.019-1.846
		c0.636-0.424,1.399-0.636,2.29-0.636c0.955,0,1.729,0.238,2.323,0.716c0.594,0.466,0.891,1.15,0.891,2.052v5.393
		c0,0.096-0.048,0.144-0.144,0.144h-0.875c-0.105,0-0.159-0.048-0.159-0.144v-1.002
		C259.022,161.824,258.083,162.264,256.938,162.264L256.938,162.264z M257.224,161.215c0.488-0.011,0.944-0.138,1.368-0.382
		c0.425-0.244,0.779-0.589,1.066-1.034c0.063-0.063,0.095-0.159,0.095-0.286v-1.766c-0.297,0.158-0.604,0.275-0.922,0.35
		c-0.318,0.074-0.674,0.138-1.066,0.19c-0.35,0.054-0.626,0.102-0.827,0.144c-0.19,0.043-0.371,0.111-0.541,0.207
		c-0.52,0.265-0.779,0.71-0.779,1.336c0,0.403,0.144,0.711,0.43,0.923C256.344,161.108,256.737,161.215,257.224,161.215z"/>
	<path id="path1231" d="M265.314,162.09c-1.379,0-2.068-0.716-2.068-2.147v-4.884h-1.065c-0.096,0-0.144-0.048-0.144-0.144v-0.827
		c0-0.042,0.011-0.074,0.032-0.096c0.031-0.031,0.068-0.048,0.111-0.048h1.065v-2.052c0-0.042,0.011-0.074,0.032-0.096
		c0.031-0.031,0.068-0.048,0.111-0.048h1.161c0.043,0,0.074,0.017,0.096,0.048c0.031,0.021,0.048,0.054,0.048,0.096v2.052h1.781
		c0.085,0,0.127,0.048,0.127,0.144v0.827c0,0.096-0.042,0.144-0.127,0.144h-1.781v4.549c0,0.488,0.079,0.833,0.238,1.034
		c0.17,0.191,0.456,0.287,0.859,0.287h0.684c0.085,0,0.127,0.042,0.127,0.127v0.891c0,0.096-0.042,0.144-0.127,0.144H265.314z"/>
	<path id="path1233" d="M268.37,152.704c-0.042,0-0.079-0.011-0.111-0.032c-0.021-0.031-0.031-0.068-0.031-0.111v-1.304
		c0-0.043,0.011-0.074,0.031-0.096c0.032-0.032,0.069-0.048,0.111-0.048h1.32c0.096,0,0.144,0.048,0.144,0.144v1.304
		c0,0.096-0.048,0.144-0.144,0.144H268.37z M268.45,162.09c-0.043,0-0.08-0.011-0.111-0.032c-0.021-0.032-0.032-0.069-0.032-0.111
		v-7.858c0-0.042,0.011-0.074,0.032-0.096c0.031-0.031,0.068-0.048,0.111-0.048h1.177c0.085,0,0.128,0.048,0.128,0.144v7.858
		c0,0.096-0.043,0.144-0.128,0.144H268.45z"/>
	<path id="path1235" d="M275.621,162.264c-0.764,0-1.442-0.159-2.036-0.478c-0.583-0.329-1.039-0.812-1.368-1.447
		c-0.328-0.637-0.493-1.4-0.493-2.291c0-0.912,0.165-1.687,0.493-2.322c0.329-0.637,0.785-1.119,1.368-1.448
		c0.594-0.328,1.272-0.492,2.036-0.492c0.753,0,1.422,0.164,2.005,0.492c0.594,0.329,1.055,0.817,1.384,1.464
		c0.339,0.637,0.509,1.405,0.509,2.307c0,0.891-0.17,1.654-0.509,2.291c-0.329,0.625-0.79,1.103-1.384,1.432
		C277.042,162.099,276.374,162.264,275.621,162.264z M275.638,160.992c0.763,0,1.362-0.244,1.797-0.732
		c0.445-0.498,0.668-1.235,0.668-2.211c0-0.997-0.223-1.744-0.668-2.243c-0.435-0.498-1.034-0.747-1.797-0.747
		c-0.764,0-1.368,0.249-1.813,0.747c-0.436,0.499-0.652,1.246-0.652,2.243c0,0.976,0.217,1.713,0.652,2.211
		C274.27,160.748,274.874,160.992,275.638,160.992z"/>
	<path id="path1237" d="M281.544,162.09c-0.042,0-0.079-0.011-0.111-0.032c-0.021-0.032-0.032-0.069-0.032-0.111v-7.858
		c0-0.042,0.011-0.074,0.032-0.096c0.032-0.031,0.069-0.048,0.111-0.048h1.177c0.043,0,0.074,0.017,0.096,0.048
		c0.032,0.021,0.048,0.054,0.048,0.096v0.938c0.255-0.393,0.594-0.694,1.019-0.906c0.435-0.223,0.917-0.334,1.447-0.334
		c0.838,0,1.501,0.27,1.988,0.811c0.498,0.541,0.748,1.268,0.748,2.18v5.17c0,0.042-0.017,0.079-0.048,0.111
		c-0.021,0.021-0.053,0.032-0.096,0.032h-1.161c-0.096,0-0.144-0.048-0.144-0.144v-4.899c0-1.326-0.535-1.988-1.606-1.988
		c-0.636,0-1.156,0.212-1.559,0.636c-0.393,0.414-0.589,0.971-0.589,1.671v4.581c0,0.042-0.016,0.079-0.048,0.111
		c-0.021,0.021-0.053,0.032-0.096,0.032H281.544z"/>
</g>
<path id="path153" inkscape:connector-curvature="0" sodipodi:nodetypes="cssc" fill="none" stroke="#000000" stroke-width="2" stroke-linecap="round" stroke-linejoin="round" stroke-miterlimit="10" d="
	M149.79,60.771c-0.354,3.564-0.367,6.01-0.042,7.695c0.927,4.8,2.443,6.801,3.437,10.845c12.396,50.455-8.46,51.396-2.692,79.266"/>
<path id="path155" inkscape:connector-curvature="0" sodipodi:nodetypes="csc" fill="none" stroke="#000000" stroke-width="2" stroke-linecap="round" stroke-linejoin="round" stroke-miterlimit="10" d="
	M141.274,71.118c-2.448,20.095-18.522,64.929-16.161,76.734c0.731,3.655,6.599,26.96,7.828,30.649"/>
<path id="path962" inkscape:connector-curvature="0" sodipodi:nodetypes="cc" fill="none" stroke="#000000" stroke-width="2" stroke-linecap="round" stroke-linejoin="round" stroke-miterlimit="10" d="
	M141.253,71.496C130.726,95.162,108.11,99.422,94.68,105.31"/>
<ellipse id="path966" cx="154.038" cy="33.829" rx="1.074" ry="1.406"/>
<ellipse id="path966_1_" cx="159.621" cy="33.829" rx="1.074" ry="1.406"/>
<path id="path992" inkscape:connector-curvature="0" sodipodi:nodetypes="ccccccc" fill="#FFFFFF" stroke="#000000" stroke-width="2" stroke-linecap="round" stroke-linejoin="round" stroke-miterlimit="10" d="
	M108.905,106.31c-4.083-2.922-34.542,1.05-35.006-0.343c-1.031-3.511-0.772-18.533-1.387-24.08c9.081-0.666,27.499,0.2,37.848,0.846
	C108.18,89.999,104.897,102.302,108.905,106.31c1.378,1.378,11.522-5.99,13.609-7.491c-5.102,0.168-9.88,0.147-15.042,0.303"/>
<path id="path994" inkscape:connector-curvature="0" sodipodi:nodetypes="cc" fill="none" stroke="#000000" stroke-width="2" stroke-linecap="round" stroke-miterlimit="10" d="
	M89.506,97.163c-1.046,7.184-0.052,9.651,3.485,9.651"/>
<path id="path998" inkscape:connector-curvature="0" sodipodi:nodetypes="cc" fill="none" stroke="#000000" stroke-width="2" stroke-linecap="round" stroke-miterlimit="10" d="
	M84.412,100.916c0.754,4.43,1.005,4.021,6.077,5.72"/>
<path id="path1000" inkscape:connector-curvature="0" sodipodi:nodetypes="cc" fill="none" stroke="#000000" stroke-width="2" stroke-linecap="round" stroke-miterlimit="10" d="
	M93.349,97.699c-1.962,8.077,0.629,7.188,1.258,9.074"/>
<path id="path1002" inkscape:connector-curvature="0" sodipodi:nodetypes="cc" fill="none" stroke="#000000" stroke-width="2" stroke-linecap="round" stroke-miterlimit="10" d="
	M96.119,99.933c-1.592,5.284,0.273,5.702-0.089,6.792"/>
<path id="path1004" inkscape:connector-curvature="0" sodipodi:nodetypes="csc" fill="none" stroke="#000000" stroke-width="2" stroke-linecap="round" stroke-linejoin="round" stroke-miterlimit="10" d="
	M146.742,59.173c7.78,2.594,14.247-6.36,15.686-9.676c3.223-7.427,4.892-23.083-2.381-25.875"/>
<path id="path1096" inkscape:connector-curvature="0" sodipodi:nodetypes="csc" fill="none" stroke="#000000" stroke-width="2" stroke-linecap="round" stroke-miterlimit="10" d="
	M182.814,88.132c0.868-0.311,2.185,1.293,3.357,0.864c2.149-0.785,4.237-3.759,5.174-5.076"/>
<path id="path1098" inkscape:connector-curvature="0" sodipodi:nodetypes="cc" fill="none" stroke="#000000" stroke-width="2" stroke-linecap="round" stroke-miterlimit="10" d="
	M182.45,84.146c2.924-0.994,5.578-2.161,8.557-1.678"/>
<path id="path1106" inkscape:connector-curvature="0" sodipodi:nodetypes="cc" fill="none" stroke="#000000" stroke-width="2" stroke-linecap="round" stroke-miterlimit="10" d="
	M180.517,75.734c-2.428,7.252,1.398,7.907,2.297,12.397"/>
<path id="path1108" inkscape:connector-curvature="0" sodipodi:nodetypes="ccc" fill="none" stroke="#000000" stroke-width="2" stroke-linecap="round" stroke-miterlimit="10" d="
	M186.025,73.601c-2.277,1.706-2.814,3.17-3.485,5.183c-0.491,1.477-0.089,3.796-0.089,5.362"/>
<path id="path1110" inkscape:connector-curvature="0" sodipodi:nodetypes="csc" fill="none" stroke="#000000" stroke-width="2" stroke-linecap="round" stroke-miterlimit="10" d="
	M190.225,75.925c-0.759,0.354-3.059,1.27-3.818,2.03c-2.7,2.702-3.593,7.127-3.593,10.177"/>
<path id="path1112" inkscape:connector-curvature="0" sodipodi:nodetypes="czc" fill="none" stroke="#000000" stroke-width="2" stroke-linecap="round" stroke-linejoin="round" stroke-miterlimit="10" d="
	M150.396,70.822c6.459,7.016,15.279,23.654,18.578,26.92c3.299,3.265,11.984-4.414,13.84-9.61"/>
<g id="text1116" transform="rotate(14.36829)">
	<path id="path1160" d="M214.426,33.988c0.001,0.053-0.016,0.096-0.047,0.127c-0.032,0.032-0.069,0.048-0.112,0.048l-1.304,0
		c-0.063,0-0.106-0.031-0.127-0.095l-0.747-2.386l-4.613,0l-0.748,2.386c-0.011,0.021-0.027,0.042-0.048,0.064
		c-0.021,0.02-0.047,0.031-0.08,0.031l-1.304,0c-0.054,0-0.095-0.022-0.127-0.064c-0.032-0.042-0.042-0.09-0.032-0.143l3.595-10.69
		c0.021-0.053,0.063-0.079,0.127-0.079l1.845,0c0.064,0,0.107,0.026,0.127,0.079l3.595,10.69L214.426,33.988z M211.69,30.441
		l-1.893-6.029l-0.032,0l-1.893,6.029L211.69,30.441z"/>
</g>
</svg>
