<?xml version="1.0" encoding="utf-8"?>
<!-- Generator: Adobe Illustrator 16.0.0, SVG Export Plug-In . SVG Version: 6.00 Build 0)  -->
<!DOCTYPE svg PUBLIC "-//W3C//DTD SVG 1.1//EN" "http://www.w3.org/Graphics/SVG/1.1/DTD/svg11.dtd">
<svg version="1.1" id="Calque_1" xmlns="http://www.w3.org/2000/svg" xmlns:xlink="http://www.w3.org/1999/xlink" x="0px" y="0px"
	 width="419.868px" height="419.867px" viewBox="0 0 419.868 419.867" enable-background="new 0 0 419.868 419.867"
	 xml:space="preserve">
<path fill="#FFFFFF" d="M411.803,152.501C380.082,41.009,263.983-23.655,152.499,8.066C41.014,39.794-23.657,155.886,8.068,267.381
	c31.723,111.486,147.822,176.141,259.307,144.42C378.864,380.086,443.522,263.986,411.803,152.501"/>
<g>
	<path fill="#FF472B" d="M321.23,233.795l-112.884-80.767c9.403,6.728,22.348-11.368,31.76-4.636
		c9.406,6.729-3.543,24.827,5.867,31.557c9.405,6.732,22.353-11.367,31.764-4.636c9.403,6.729-3.543,24.829,5.867,31.558
		c9.401,6.73,22.351-11.367,31.757-4.638C324.765,208.963,311.821,227.064,321.23,233.795 M295.336,33.804
		c49.406,19.169,12.521,114.21,61.922,133.382L159.653,90.499C209.055,109.668,245.933,14.629,295.336,33.804 M93.518,240.07
		c0.007,0.006,0.009,0.016,0.015,0.023c0.003,0.012,0.003,0.02,0.001,0.023l29.505,87.684c-7.373-21.928-49.553-7.734-56.935-29.664
		c-7.375-21.916,34.768-36.105,27.43-58.02L93.518,240.07c-7.395-21.89-49.544-7.713-56.923-29.633
		c-7.375-21.923,34.804-36.119,27.426-58.044L93.518,240.07z M168.135,238.857L168.135,238.857l-48.029-76.736v-0.004v-0.002
		L72.072,85.373c12.008,19.184,48.914-3.917,60.921,15.271c12.012,19.188-24.895,42.287-12.888,61.473v0.006
		c12.008,19.181,48.916-3.919,60.921,15.267C193.038,196.574,156.13,219.674,168.135,238.857
		c12.014,19.189,48.917-3.914,60.927,15.273c12.008,19.184-24.896,42.283-12.895,61.469L168.135,238.857z M384.321,256.711
		c-9.02,12.891-33.817-4.461-42.847,8.428c-9.017,12.895,15.783,30.244,6.762,43.143c-9.024,12.893-33.817-4.463-42.841,8.428
		c-9.025,12.893,15.776,30.246,6.751,43.141c-9.023,12.887-33.82-4.467-42.842,8.43L377.569,213.57
		C368.548,226.463,393.345,243.814,384.321,256.711 M239.968,385.273c-20.77-19.094-57.503,20.877-78.278,1.789
		c-20.776-19.09,15.949-59.057-4.828-78.148L239.968,385.273z"/>
</g>
</svg>
