<?xml version="1.0" encoding="utf-8"?>
<!-- Generator: Adobe Illustrator 16.0.0, SVG Export Plug-In . SVG Version: 6.00 Build 0)  -->
<!DOCTYPE svg PUBLIC "-//W3C//DTD SVG 1.1 Tiny//EN" "http://www.w3.org/Graphics/SVG/1.1/DTD/svg11-tiny.dtd">
<svg version="1.1" baseProfile="tiny" id="Calque_1"
	 xmlns="http://www.w3.org/2000/svg" xmlns:xlink="http://www.w3.org/1999/xlink" x="0px" y="0px" width="419.868px"
	 height="419.868px" viewBox="0 0 419.868 419.868" xml:space="preserve">
<path fill="#E6E6E6" d="M255.869,5.132C142.751-20.231,30.497,50.894,5.134,164c-25.37,113.11,45.758,225.365,158.871,250.735
	c113.107,25.368,225.365-45.765,250.73-158.871C440.103,142.756,368.977,30.497,255.869,5.132z M81.368,70.939l113.013,88.818
	L58.82,113.363L81.368,70.939z M176.094,170.563l6.682,47.589l-143.633-5.476L176.094,170.563z M14.928,225.562l132.64,29.747
	l-29.748,132.646L14.928,225.562z M174.736,379.559l-32.168-48.572l64.654-7.876L174.736,379.559z M171.886,69.721l164.465-0.553
	l-81.675,164.738L171.886,69.721z M213.229,341.948l41.179-50.468l15.672,63.22L213.229,341.948z M331.372,329.128l-5.723-152.457
	l76.783,27.512L331.372,329.128z"/>
</svg>
