<?xml version="1.0" encoding="utf-8"?>
<!-- Generator: Adobe Illustrator 16.0.0, SVG Export Plug-In . SVG Version: 6.00 Build 0)  -->
<!DOCTYPE svg PUBLIC "-//W3C//DTD SVG 1.1//EN" "http://www.w3.org/Graphics/SVG/1.1/DTD/svg11.dtd">
<svg version="1.1" id="Calque_1" xmlns="http://www.w3.org/2000/svg" xmlns:xlink="http://www.w3.org/1999/xlink" x="0px" y="0px"
	 width="419.868px" height="419.867px" viewBox="0 0 419.868 419.867" enable-background="new 0 0 419.868 419.867"
	 xml:space="preserve">
<path fill="none" d="M317.977,389.9c-99.399,59.667-228.341,27.453-288.012-71.935c-59.661-99.389-27.457-228.334,71.939-288
	C201.296-29.695,330.241,2.505,389.898,101.9C449.562,201.291,417.367,330.234,317.977,389.9z"/>
<path fill="#FFFFFF" d="M101.905,29.966c-99.396,59.666-131.601,188.611-71.939,288c59.671,99.388,188.612,131.602,288.012,71.935
	c99.39-59.666,131.585-188.609,71.921-288C330.241,2.505,201.296-29.695,101.905,29.966z"/>
<g>
	<path fill="#FF472B" d="M316.955,151.189c-9.72,0-17.597,88.683-17.597,198.077c0-84.972-7.877-153.858-17.596-153.858
		c-9.718,0-17.597,68.886-17.597,153.858h0.002c0.07-22.844,7.919-41.312,17.595-41.312s17.524,18.468,17.593,41.312
		c0,0.099,0.003,0.197,0.003,0.3c0-0.103,0.002-0.201,0.003-0.3c0.054-29.449,7.908-53.274,17.594-53.274
		s17.54,23.825,17.595,53.274h0.003C334.552,239.872,326.674,151.189,316.955,151.189z"/>
	<path fill="#FF472B" d="M297.584,136.502h0.014c0-35.932-16.089-65.061-35.94-65.061c-19.851,0-35.938,29.128-35.938,65.061h0.014
		c0.318-18.351,16.274-33.135,35.925-33.135C281.31,103.367,297.267,118.151,297.584,136.502z"/>
	<path fill="#FF472B" d="M152.546,70.303c-37.131,0-67.229,51.905-67.229,115.924h0.015c0.304-18.538,30.271-33.526,67.214-33.526
		c36.945,0,66.914,14.988,67.217,33.526h0.015C219.778,122.208,189.679,70.303,152.546,70.303z"/>
	<path fill="#FF472B" d="M152.546,189.583c-37.133,0-67.23,37.731-67.23,84.265h0.015c0.307-13.477,30.273-24.368,67.215-24.368
		c36.942,0,66.908,10.892,67.216,24.368h0.015C219.777,227.314,189.679,189.583,152.546,189.583z"/>
	<path fill="#FF472B" d="M318.784,71.441c-8.705,0-15.764,11.639-15.764,25.998h0.013c0.141-7.331,7.132-13.24,15.751-13.24
		c8.621,0,15.614,5.91,15.755,13.24h0.014C334.552,83.08,327.491,71.441,318.784,71.441z"/>
	<path fill="#FF472B" d="M152.546,279.718c-37.134,0-67.23,31.194-67.23,69.68h0.014c0.3-11.146,30.27-20.155,67.216-20.155
		c36.946,0,66.915,9.01,67.216,20.155h0.015C219.777,310.912,189.678,279.718,152.546,279.718z"/>
	<path fill="#FF472B" d="M219.762,349.397c-0.302-11.146-30.27-20.155-67.216-20.155c-36.946,0-66.916,9.01-67.216,20.155h-0.014
		c0-38.485,30.096-69.68,67.23-69.68c37.132,0,67.231,31.194,67.231,69.68H219.762z M219.762,273.849
		c-0.309-13.477-30.274-24.368-67.216-24.368c-36.941,0-66.908,10.892-67.215,24.368h-0.015c0-46.534,30.097-84.265,67.23-84.265
		s67.231,37.731,67.231,84.265H219.762z M219.763,186.227c-0.304-18.538-30.272-33.526-67.217-33.526
		c-36.943,0-66.91,14.988-67.214,33.526h-0.015c0-64.019,30.098-115.924,67.229-115.924c37.133,0,67.232,51.905,67.232,115.924
		H219.763z M225.733,136.502h-0.014c0-35.932,16.088-65.061,35.938-65.061c19.852,0,35.94,29.128,35.94,65.061h-0.014
		c-0.317-18.351-16.274-33.135-35.927-33.135C242.007,103.367,226.051,118.151,225.733,136.502z M334.549,349.267
		c-0.055-29.449-7.909-53.274-17.595-53.274s-17.54,23.825-17.594,53.274c-0.001,0.099-0.003,0.197-0.003,0.3
		c0-0.103-0.003-0.201-0.003-0.3c-0.068-22.844-7.917-41.312-17.593-41.312s-17.524,18.468-17.595,41.312h-0.002
		c0-84.972,7.879-153.858,17.597-153.858c9.719,0,17.596,68.886,17.596,153.858c0-109.395,7.877-198.077,17.597-198.077
		s17.598,88.683,17.598,198.077H334.549z M334.539,97.439c-0.141-7.331-7.134-13.24-15.755-13.24c-8.619,0-15.61,5.91-15.751,13.24
		h-0.013c0-14.359,7.059-25.998,15.764-25.998c8.707,0,15.769,11.639,15.769,25.998H334.539z"/>
</g>
</svg>
