<?xml version="1.0" encoding="utf-8"?>
<!-- Generator: Adobe Illustrator 16.0.0, SVG Export Plug-In . SVG Version: 6.00 Build 0)  -->
<!DOCTYPE svg PUBLIC "-//W3C//DTD SVG 1.1//EN" "http://www.w3.org/Graphics/SVG/1.1/DTD/svg11.dtd">
<svg version="1.1" id="Calque_1" xmlns="http://www.w3.org/2000/svg" xmlns:xlink="http://www.w3.org/1999/xlink" x="0px" y="0px"
	 width="419.867px" height="419.862px" viewBox="0 0 419.867 419.862" enable-background="new 0 0 419.867 419.862"
	 xml:space="preserve">
<path fill="#FFFFFF" d="M255.869,5.132C142.752-20.231,30.498,50.894,5.135,164c-25.371,113.111,45.756,225.364,158.87,250.737
	c113.108,25.365,225.365-45.767,250.731-158.873C440.103,142.756,368.978,30.498,255.869,5.132"/>
<g>
	<path fill="#FF472B" d="M176.938,22.747l4.199-0.74l26.436,160.135l-2.454,0.432l-2.454,0.437L172.732,23.493L176.938,22.747z
		 M114.91,45.326l3.689-2.135l79.613,141.429l-2.164,1.252l-2.155,1.249L111.209,47.455L114.91,45.326z M64.334,87.749l2.741-3.267
		l123.189,105.672l-1.605,1.915l-1.6,1.915L61.595,91.021L64.334,87.749z M31.333,144.913l1.454-4.002l151.898,57.163l-0.851,2.35
		l-0.85,2.349L29.871,148.928L31.333,144.913z M19.865,205.668l162.293,1.773v4.993l-162.293,1.768V205.668z M32.787,278.949
		l-1.461-4.007l-1.455-4.012l153.108-53.839l0.855,2.344l0.856,2.346L32.787,278.949z M61.593,328.841l125.463-102.96l3.209,3.822
		L67.075,335.38L61.593,328.841z M118.6,376.673l-3.693-2.135l-3.697-2.132l82.685-139.664l4.324,2.497L118.6,376.673z
		 M181.141,397.854l-4.209-0.741l-4.199-0.743l29.932-159.518l4.916,0.867L181.141,397.854z M387.086,140.918l1.46,4.008l1.46,4.006
		l-153.113,53.851l-1.703-4.693L387.086,140.918z M355.54,87.758l2.745,3.271l-125.46,102.964l-3.214-3.822L352.796,84.49
		L355.54,87.758z M301.277,43.194l3.699,2.134l3.692,2.127l-82.678,139.672l-4.325-2.497L301.277,43.194z M238.741,22.007
		l4.207,0.74l4.199,0.746L217.22,183.01l-4.914-0.863L238.741,22.007z M242.943,397.113l-4.201,0.74L212.306,237.72l4.917-0.868
		l29.927,159.519L242.943,397.113z M304.977,374.533l-3.699,2.133l-79.608-141.433l4.326-2.502l82.678,139.671L304.977,374.533z
		 M355.54,332.103l-2.744,3.266L229.614,229.693l3.211-3.829l125.46,102.967L355.54,332.103z M388.544,274.933l-1.459,4.006
		l-151.896-57.17l0.85-2.341l0.854-2.354l153.109,53.85L388.544,274.933z M400.005,214.202l-162.293-1.768v-4.993l162.293-1.773
		V214.202z"/>
</g>
</svg>
