<?xml version="1.0" encoding="utf-8"?>
<!-- Generator: Adobe Illustrator 16.0.0, SVG Export Plug-In . SVG Version: 6.00 Build 0)  -->
<!DOCTYPE svg PUBLIC "-//W3C//DTD SVG 1.1 Tiny//EN" "http://www.w3.org/Graphics/SVG/1.1/DTD/svg11-tiny.dtd">
<svg version="1.1" baseProfile="tiny" id="Calque_1"
	 xmlns="http://www.w3.org/2000/svg" xmlns:xlink="http://www.w3.org/1999/xlink" x="0px" y="0px" width="419.868px"
	 height="419.868px" viewBox="0 0 419.868 419.868" xml:space="preserve">
<g>
	<path fill="#E6E6E6" d="M411.803,152.501C380.082,41.009,263.983-23.655,152.499,8.066C41.014,39.794-23.657,155.886,8.068,267.38
		C39.791,378.867,155.89,443.522,267.375,411.801C378.864,380.086,443.522,263.987,411.803,152.501 M321.23,233.795l-112.884-80.767
		c9.403,6.728,22.348-11.368,31.76-4.636c9.406,6.729-3.543,24.827,5.867,31.557c9.405,6.731,22.353-11.367,31.764-4.636
		c9.403,6.729-3.543,24.829,5.867,31.558c9.401,6.73,22.351-11.367,31.757-4.638C324.765,208.963,311.821,227.065,321.23,233.795
		 M295.336,33.804c49.406,19.169,12.521,114.21,61.922,133.382L159.653,90.499C209.055,109.668,245.933,14.629,295.336,33.804
		 M93.518,240.071c0.007,0.006,0.009,0.016,0.015,0.023c0.003,0.012,0.003,0.02,0.001,0.023L123.04,327.8
		c-7.373-21.927-49.553-7.734-56.935-29.664c-7.375-21.915,34.768-36.104,27.43-58.019L93.518,240.071
		c-7.395-21.89-49.544-7.714-56.923-29.633c-7.375-21.923,34.804-36.12,27.426-58.044L93.518,240.071z M168.134,238.858
		L168.134,238.858l-48.028-76.736v-0.004v-0.002L72.072,85.373c12.008,19.184,48.914-3.917,60.921,15.271
		c12.012,19.188-24.895,42.287-12.888,61.473v0.006c12.008,19.181,48.916-3.919,60.922,15.268
		C193.038,196.574,156.13,219.674,168.134,238.858c12.015,19.189,48.917-3.915,60.927,15.273
		c12.008,19.183-24.896,42.283-12.895,61.468L168.134,238.858z M384.321,256.711c-9.02,12.89-33.817-4.462-42.847,8.428
		c-9.017,12.895,15.783,30.244,6.762,43.142c-9.024,12.894-33.817-4.463-42.841,8.428c-9.025,12.893,15.776,30.246,6.751,43.142
		c-9.023,12.886-33.82-4.468-42.842,8.429L377.569,213.57C368.548,226.462,393.345,243.814,384.321,256.711 M239.968,385.273
		c-20.77-19.093-57.503,20.878-78.278,1.79c-20.776-19.09,15.95-59.058-4.828-78.148L239.968,385.273z"/>
</g>
</svg>
