<?xml version="1.0" encoding="utf-8"?>
<!-- Generator: Adobe Illustrator 16.0.0, SVG Export Plug-In . SVG Version: 6.00 Build 0)  -->
<!DOCTYPE svg PUBLIC "-//W3C//DTD SVG 1.1//EN" "http://www.w3.org/Graphics/SVG/1.1/DTD/svg11.dtd">
<svg version="1.1" id="Calque_1" xmlns="http://www.w3.org/2000/svg" xmlns:xlink="http://www.w3.org/1999/xlink" x="0px" y="0px"
	 width="419.69px" height="419.82px" viewBox="0 0 419.69 419.82" enable-background="new 0 0 419.69 419.82" xml:space="preserve">
<path fill="#FFFFFF" d="M412.521,225.818c2.507,0,4.758,1.079,6.329,2.793c0.491-5.435,0.773-10.892,0.84-16.363
	c-1.54,2.322-4.174,3.854-7.169,3.854c-4.751,0-8.602-3.848-8.602-8.602c0-4.748,3.851-8.597,8.602-8.597
	c2.927,0,5.509,1.465,7.062,3.698c-0.167-4.942-0.512-9.888-1.032-14.83c-1.552,1.528-3.68,2.474-6.029,2.474
	c-4.751,0-8.602-3.851-8.602-8.602c0-4.747,3.851-8.598,8.602-8.598c1.499,0,2.907,0.385,4.134,1.059
	c-0.578-3.341-1.237-6.675-1.98-10c-0.69,0.178-1.408,0.282-2.153,0.282c-4.751,0-8.602-3.848-8.602-8.601
	c0-3.955,2.673-7.276,6.31-8.279c-1.234-3.953-2.579-7.887-4.061-11.792c-1.366-1.499-2.211-3.479-2.243-5.661
	c-2.505-6.068-5.318-12.066-8.439-17.977c-1.555,2.222-4.128,3.678-7.046,3.678c-4.75,0-8.6-3.848-8.6-8.596
	c0-4.507,3.467-8.199,7.877-8.567c-7.916-12.659-16.963-24.2-26.945-34.55h-20.493c-4.748,0-8.599-3.848-8.599-8.602
	c0-4.748,3.851-8.598,8.599-8.598h1.736c-6.213-5.036-12.685-9.677-19.368-13.93c-1.302,3.098-4.363,5.271-7.932,5.271
	c-4.749,0-8.6-3.847-8.6-8.601v-6.165c-10.739-5.532-21.913-10.115-33.385-13.716c-1.562,1.616-3.75,2.624-6.175,2.624
	c-4.069,0-7.468-2.828-8.363-6.623c-3.071-0.729-6.158-1.389-9.26-1.979h-15.058c0-0.786,0.115-1.545,0.312-2.268
	c-2.58-0.304-5.166-0.567-7.759-0.776c0.359,0.948,0.565,1.972,0.565,3.044c0,4.75-3.851,8.602-8.6,8.602s-8.599-3.852-8.599-8.602
	c0-1.335,0.312-2.593,0.856-3.722c-5.439-0.027-10.889,0.168-16.336,0.566v11.757c-4.751,0-8.601-3.852-8.601-8.602
	c0-0.83,0.124-1.631,0.344-2.39c-2.452,0.277-4.902,0.604-7.35,0.971c0.077,0.463,0.127,0.935,0.127,1.419
	c0,4.75-3.852,8.602-8.601,8.602c-4.125,0-7.569-2.906-8.404-6.783c-2.578,0.606-5.151,1.26-7.716,1.966v22.074
	c0,4.754-3.852,8.601-8.599,8.601c-4.752,0-8.602-3.847-8.602-8.601V13.068c-10.616,3.944-21.045,8.796-31.183,14.591
	c0.142,0.619,0.223,1.261,0.223,1.924c0,4.754-3.851,8.601-8.599,8.601c-2.056,0-3.942-0.723-5.422-1.926
	c-5.274,3.574-10.337,7.354-15.188,11.319c3.02,1.336,5.13,4.351,5.13,7.863c0,4.754-3.852,8.602-8.601,8.602
	c-3.894,0-7.179-2.587-8.239-6.136C60.017,62.68,55.269,67.67,50.8,72.855c3.982,0.751,6.996,4.242,6.996,8.442
	c0,4.753-3.85,8.601-8.599,8.601V74.729c-6.883,8.176-13.074,16.817-18.564,25.832c1.885,1.577,3.086,3.946,3.086,6.598h-6.953
	c-3.532,6.308-6.708,12.788-9.56,19.397c1.312-3.072,4.359-5.228,7.913-5.228v17.2c-4.751,0-8.601-3.85-8.601-8.603
	c0-1.177,0.237-2.298,0.666-3.32c-4.087,9.479-7.486,19.23-10.14,29.18h2.594c0,3.254-1.805,6.081-4.465,7.542
	c-0.734,3.223-1.391,6.464-1.973,9.718h21.918c4.749,0,8.6,3.851,8.6,8.598c0,4.751-3.851,8.602-8.6,8.602H1.039
	c-0.062,0-0.121-0.008-0.184-0.01c-0.275,2.896-0.501,5.801-0.655,8.71c0.276-0.026,0.555-0.042,0.839-0.042
	c4.749,0,8.6,3.849,8.6,8.597c0,4.754-3.851,8.602-8.6,8.602c-0.353,0-0.697-0.026-1.039-0.066c0.093,3.269,0.263,6.539,0.508,9.809
	c0.177-0.009,0.353-0.025,0.531-0.025c4.749,0,8.6,3.851,8.6,8.598c0,4.251-3.088,7.773-7.14,8.468
	c0.923,5.818,2.09,11.62,3.519,17.389h3.621c0,2.171-0.808,4.146-2.131,5.657c1.079,3.888,2.277,7.757,3.59,11.604h14.021
	c4.749,0,8.6,3.849,8.6,8.599c0,4.752-3.851,8.6-8.6,8.6h-7.296c1.367,3.084,2.809,6.149,4.337,9.192
	c0.924-0.34,1.917-0.534,2.959-0.534c4.749,0,8.6,3.85,8.6,8.599c0,2.763-1.307,5.214-3.329,6.786
	c3.376,5.567,6.97,10.918,10.765,16.055c1.223-3.26,4.357-5.582,8.043-5.582c4.749,0,8.599,3.851,8.599,8.603
	c0,4.366-3.258,7.962-7.473,8.514c4.581,5.368,9.395,10.459,14.419,15.27c-0.039-0.334-0.065-0.672-0.065-1.015
	c0-4.746,3.851-8.599,8.602-8.599c4.749,0,8.601,3.853,8.601,8.599c0,4.752-3.852,8.603-8.601,8.603
	c-0.062,0-0.123-0.009-0.186-0.011c5.403,4.64,11.01,8.979,16.801,13.006c1.482-2.589,4.268-4.337,7.465-4.337
	c4.748,0,8.599,3.848,8.599,8.599c0,1.843-0.583,3.546-1.568,4.943c10.922,6.332,22.358,11.643,34.156,15.895
	c1.562-2.164,4.1-3.579,6.974-3.579c4.723,0,8.557,3.812,8.597,8.527c2.563,0.706,5.146,1.351,7.735,1.958
	c-0.137-0.607-0.214-1.237-0.214-1.886c0-4.748,3.852-8.6,8.601-8.6h24.08c4.749,0,8.599,3.852,8.599,8.6
	c0,3.012-1.55,5.658-3.894,7.194c5.013,0.263,10.042,0.348,15.077,0.249c-2.569-1.487-4.303-4.26-4.303-7.443
	c0-4.748,3.85-8.6,8.599-8.6s8.6,3.852,8.6,8.6c0,2.923-1.461,5.499-3.688,7.054c4.289-0.272,8.576-0.686,12.858-1.225
	c-1.417-1.534-2.29-3.576-2.29-5.829c0-4.748,3.851-8.6,8.602-8.6c4.749,0,8.6,3.852,8.6,8.6c0,1.271-0.283,2.474-0.777,3.558
	c2.626-0.515,5.247-1.086,7.862-1.705c-0.132-0.598-0.206-1.217-0.206-1.853c0-4.748,3.85-8.6,8.601-8.6
	c3.773,0,6.973,2.437,8.13,5.818c3.434-1.12,6.85-2.336,10.246-3.643c1.442-1.281,3.316-2.081,5.377-2.159
	c6.851-2.855,13.609-6.104,20.253-9.745c-2.651-1.465-4.446-4.285-4.446-7.53v-25.859c0-4.746,3.851-8.599,8.6-8.599
	c4.748,0,8.601,3.853,8.601,8.599v25.816c11.842-7.604,22.679-16.211,32.453-25.651c-0.001-0.055-0.009-0.109-0.009-0.165
	c0-4.729,3.821-8.566,8.545-8.596c9.126-9.913,17.188-20.596,24.135-31.87V303.39c3.058,0,5.735,1.601,7.26,4.004
	c3.184-6.084,6.06-12.312,8.624-18.655c-0.261-0.823-0.404-1.698-0.404-2.606c0-3.111,1.657-5.828,4.133-7.338
	c1.149-3.315,2.214-6.658,3.197-10.023c-4.146-0.616-7.33-4.179-7.33-8.499h9.628c2.103-8.506,3.668-17.143,4.699-25.856H403.92
	C403.92,229.668,407.771,225.818,412.521,225.818z"/>
<path fill="#FF472B" d="M25.119,268.874c-4.751,0-8.601-3.847-8.601-8.602c0-4.747,3.85-8.598,8.601-8.598
	c4.749,0,8.6,3.851,8.6,8.598C33.719,265.027,29.868,268.874,25.119,268.874z M16.519,234.416c0-4.747,3.85-8.598,8.601-8.598
	v17.198C20.368,243.016,16.519,239.167,16.519,234.416z M25.119,216.101c-4.751,0-8.601-3.848-8.601-8.602
	c0-4.748,3.85-8.597,8.601-8.597c4.749,0,8.6,3.849,8.6,8.597C33.719,212.253,29.868,216.101,25.119,216.101z M25.119,164.386
	c-4.751,0-8.601-3.848-8.601-8.601c0-4.75,3.85-8.598,8.601-8.598c4.749,0,8.6,3.848,8.6,8.598
	C33.719,160.539,29.868,164.386,25.119,164.386z M49.197,320.59v-17.2c4.749,0,8.599,3.85,8.599,8.599
	C57.796,316.742,53.946,320.59,49.197,320.59z M49.197,294.732c-4.75,0-8.599-3.848-8.599-8.6c0-4.75,3.849-8.599,8.599-8.599
	c4.749,0,8.599,3.849,8.599,8.599C57.796,290.884,53.946,294.732,49.197,294.732z M49.197,268.874c-4.75,0-8.599-3.847-8.599-8.602
	c0-4.747,3.849-8.598,8.599-8.598c4.749,0,8.599,3.851,8.599,8.598C57.796,265.027,53.946,268.874,49.197,268.874z M49.197,243.016
	c-4.75,0-8.599-3.85-8.599-8.601c0-4.747,3.849-8.598,8.599-8.598c4.749,0,8.599,3.851,8.599,8.598
	C57.796,239.167,53.946,243.016,49.197,243.016z M49.197,216.101v-17.198c4.749,0,8.599,3.849,8.599,8.597
	C57.796,212.253,53.946,216.101,49.197,216.101z M49.197,190.245c-4.75,0-8.599-3.851-8.599-8.602c0-4.747,3.849-8.598,8.599-8.598
	c4.749,0,8.599,3.851,8.599,8.598C57.796,186.394,53.946,190.245,49.197,190.245z M49.197,164.386c-4.75,0-8.599-3.848-8.599-8.601
	c0-4.75,3.849-8.598,8.599-8.598c4.749,0,8.599,3.848,8.599,8.598C57.796,160.539,53.946,164.386,49.197,164.386z M49.197,138.529
	c-4.75,0-8.599-3.85-8.599-8.603c0-4.746,3.849-8.598,8.599-8.598c4.749,0,8.599,3.852,8.599,8.598
	C57.796,134.679,53.946,138.529,49.197,138.529z M49.197,115.754c-4.75,0-8.599-3.848-8.599-8.596c0-4.752,3.849-8.603,8.599-8.603
	c4.749,0,8.599,3.851,8.599,8.603C57.796,111.907,53.946,115.754,49.197,115.754z M73.278,346.446c-4.751,0-8.602-3.848-8.602-8.596
	c0-4.752,3.851-8.603,8.602-8.603c4.749,0,8.601,3.851,8.601,8.603C81.879,342.598,78.027,346.446,73.278,346.446z M73.278,320.59
	c-4.751,0-8.602-3.849-8.602-8.602c0-4.749,3.851-8.599,8.602-8.599c4.749,0,8.601,3.85,8.601,8.599
	C81.879,316.742,78.027,320.59,73.278,320.59z M73.278,294.732c-4.751,0-8.602-3.848-8.602-8.6c0-4.75,3.851-8.599,8.602-8.599
	c4.749,0,8.601,3.849,8.601,8.599C81.879,290.884,78.027,294.732,73.278,294.732z M73.278,268.874c-4.751,0-8.602-3.847-8.602-8.602
	h17.202C81.879,265.027,78.027,268.874,73.278,268.874z M64.677,234.416c0-4.747,3.851-8.598,8.602-8.598
	c4.749,0,8.601,3.851,8.601,8.598H64.677z M73.278,216.101c-4.751,0-8.602-3.848-8.602-8.602c0-4.748,3.851-8.597,8.602-8.597
	c4.749,0,8.601,3.849,8.601,8.597C81.879,212.253,78.027,216.101,73.278,216.101z M73.278,190.245c-4.751,0-8.602-3.851-8.602-8.602
	c0-4.747,3.851-8.598,8.602-8.598c4.749,0,8.601,3.851,8.601,8.598C81.879,186.394,78.027,190.245,73.278,190.245z M73.278,164.386
	c-4.751,0-8.602-3.848-8.602-8.601c0-4.75,3.851-8.598,8.602-8.598c4.749,0,8.601,3.848,8.601,8.598
	C81.879,160.539,78.027,164.386,73.278,164.386z M73.278,138.529c-4.751,0-8.602-3.85-8.602-8.603c0-4.746,3.851-8.598,8.602-8.598
	c4.749,0,8.601,3.852,8.601,8.598C81.879,134.679,78.027,138.529,73.278,138.529z M73.278,115.754c-4.751,0-8.602-3.848-8.602-8.596
	c0-4.752,3.851-8.603,8.602-8.603c4.749,0,8.601,3.851,8.601,8.603C81.879,111.907,78.027,115.754,73.278,115.754z M73.278,89.898
	c-4.751,0-8.602-3.848-8.602-8.601c0-4.748,3.851-8.598,8.602-8.598c4.749,0,8.601,3.85,8.601,8.598
	C81.879,86.05,78.027,89.898,73.278,89.898z M97.358,369.221c-4.751,0-8.601-3.851-8.601-8.603c0-4.746,3.85-8.599,8.601-8.599
	c4.748,0,8.599,3.853,8.599,8.599C105.957,365.371,102.106,369.221,97.358,369.221z M105.957,337.85
	c0,4.748-3.851,8.596-8.599,8.596c-4.751,0-8.601-3.848-8.601-8.596v-25.861c0-4.749,3.85-8.599,8.601-8.599
	c4.748,0,8.599,3.85,8.599,8.599V337.85z M97.358,294.732c-4.751,0-8.601-3.848-8.601-8.6c0-4.75,3.85-8.599,8.601-8.599
	c4.748,0,8.599,3.849,8.599,8.599C105.957,290.884,102.106,294.732,97.358,294.732z M97.358,268.874
	c-4.751,0-8.601-3.847-8.601-8.602c0-4.747,3.85-8.598,8.601-8.598c4.748,0,8.599,3.851,8.599,8.598
	C105.957,265.027,102.106,268.874,97.358,268.874z M97.358,243.016c-4.751,0-8.601-3.85-8.601-8.601c0-4.747,3.85-8.598,8.601-8.598
	c4.748,0,8.599,3.851,8.599,8.598C105.957,239.167,102.106,243.016,97.358,243.016z M88.758,207.5c0-4.748,3.85-8.597,8.601-8.597
	c4.748,0,8.599,3.849,8.599,8.597H88.758z M97.358,190.245c-4.751,0-8.601-3.851-8.601-8.602c0-4.747,3.85-8.598,8.601-8.598
	c4.748,0,8.599,3.851,8.599,8.598C105.957,186.394,102.106,190.245,97.358,190.245z M97.358,164.386
	c-4.751,0-8.601-3.848-8.601-8.601c0-4.75,3.85-8.598,8.601-8.598c4.748,0,8.599,3.848,8.599,8.598
	C105.957,160.539,102.106,164.386,97.358,164.386z M97.358,138.529c-4.751,0-8.601-3.85-8.601-8.603c0-4.746,3.85-8.598,8.601-8.598
	c4.748,0,8.599,3.852,8.599,8.598C105.957,134.679,102.106,138.529,97.358,138.529z M105.957,107.159
	c0,4.748-3.851,8.596-8.599,8.596c-4.751,0-8.601-3.848-8.601-8.596V81.297c0-4.748,3.85-8.598,8.601-8.598
	c4.748,0,8.599,3.85,8.599,8.598V107.159z M97.358,64.042c-4.751,0-8.601-3.848-8.601-8.602c0-4.748,3.85-8.598,8.601-8.598
	c4.748,0,8.599,3.85,8.599,8.598C105.957,60.194,102.106,64.042,97.358,64.042z M121.437,395.078c-4.748,0-8.599-3.847-8.599-8.6
	c0-4.751,3.851-8.599,8.599-8.599c4.751,0,8.601,3.848,8.601,8.599C130.037,391.231,126.188,395.078,121.437,395.078z
	 M121.437,369.221c-4.748,0-8.599-3.851-8.599-8.603c0-4.746,3.851-8.599,8.599-8.599c4.751,0,8.601,3.853,8.601,8.599
	C130.037,365.371,126.188,369.221,121.437,369.221z M121.437,346.446c-4.748,0-8.599-3.848-8.599-8.596
	c0-4.752,3.851-8.603,8.599-8.603c4.751,0,8.601,3.851,8.601,8.603C130.037,342.598,126.188,346.446,121.437,346.446z
	 M121.437,320.59c-4.748,0-8.599-3.849-8.599-8.602c0-4.749,3.851-8.599,8.599-8.599c4.751,0,8.601,3.85,8.601,8.599
	C130.037,316.742,126.188,320.59,121.437,320.59z M112.838,286.132c0-4.75,3.851-8.599,8.599-8.599v17.198
	C116.688,294.732,112.838,290.884,112.838,286.132z M121.437,268.874c-4.748,0-8.599-3.847-8.599-8.602
	c0-4.747,3.851-8.598,8.599-8.598c4.751,0,8.601,3.851,8.601,8.598C130.037,265.027,126.188,268.874,121.437,268.874z
	 M112.838,234.416c0-4.747,3.851-8.598,8.599-8.598v17.198C116.688,243.016,112.838,239.167,112.838,234.416z M121.437,216.101
	c-4.748,0-8.599-3.848-8.599-8.602c0-4.748,3.851-8.597,8.599-8.597c4.751,0,8.601,3.849,8.601,8.597
	C130.037,212.253,126.188,216.101,121.437,216.101z M112.838,181.643c0-4.747,3.851-8.598,8.599-8.598v17.199
	C116.688,190.245,112.838,186.394,112.838,181.643z M121.437,164.386c-4.748,0-8.599-3.848-8.599-8.601
	c0-4.75,3.851-8.598,8.599-8.598c4.751,0,8.601,3.848,8.601,8.598C130.037,160.539,126.188,164.386,121.437,164.386z
	 M121.437,138.529c-4.748,0-8.599-3.85-8.599-8.603c0-4.746,3.851-8.598,8.599-8.598c4.751,0,8.601,3.852,8.601,8.598
	C130.037,134.679,126.188,138.529,121.437,138.529z M121.437,115.754c-4.748,0-8.599-3.848-8.599-8.596
	c0-4.752,3.851-8.603,8.599-8.603c4.751,0,8.601,3.851,8.601,8.603C130.037,111.907,126.188,115.754,121.437,115.754z
	 M121.437,89.898c-4.748,0-8.599-3.848-8.599-8.601c0-4.748,3.851-8.598,8.599-8.598c4.751,0,8.601,3.85,8.601,8.598
	C130.037,86.05,126.188,89.898,121.437,89.898z M112.838,55.44c0-4.748,3.851-8.598,8.599-8.598v17.199
	C116.688,64.042,112.838,60.194,112.838,55.44z M121.437,38.183c-4.748,0-8.599-3.847-8.599-8.601c0-4.748,3.851-8.599,8.599-8.599
	c4.751,0,8.601,3.851,8.601,8.599C130.037,34.336,126.188,38.183,121.437,38.183z M154.117,386.478c0,4.753-3.852,8.6-8.599,8.6
	c-4.752,0-8.602-3.847-8.602-8.6v-25.859c0-4.746,3.85-8.599,8.602-8.599c4.747,0,8.599,3.853,8.599,8.599V386.478z
	 M145.519,346.446c-4.752,0-8.602-3.848-8.602-8.596c0-4.752,3.85-8.603,8.602-8.603c4.747,0,8.599,3.851,8.599,8.603
	C154.117,342.598,150.266,346.446,145.519,346.446z M145.519,320.59c-4.752,0-8.602-3.849-8.602-8.602
	c0-4.749,3.85-8.599,8.602-8.599c4.747,0,8.599,3.85,8.599,8.599C154.117,316.742,150.266,320.59,145.519,320.59z M145.519,294.732
	c-4.752,0-8.602-3.848-8.602-8.6c0-4.75,3.85-8.599,8.602-8.599c4.747,0,8.599,3.849,8.599,8.599
	C154.117,290.884,150.266,294.732,145.519,294.732z M154.117,260.272c0,4.755-3.852,8.602-8.599,8.602
	c-4.752,0-8.602-3.847-8.602-8.602v-25.856c0-4.747,3.85-8.598,8.602-8.598c4.747,0,8.599,3.851,8.599,8.598V260.272z
	 M145.519,216.101c-4.752,0-8.602-3.848-8.602-8.602c0-4.748,3.85-8.597,8.602-8.597c4.747,0,8.599,3.849,8.599,8.597
	C154.117,212.253,150.266,216.101,145.519,216.101z M145.519,190.245c-4.752,0-8.602-3.851-8.602-8.602
	c0-4.747,3.85-8.598,8.602-8.598c4.747,0,8.599,3.851,8.599,8.598C154.117,186.394,150.266,190.245,145.519,190.245z
	 M154.117,155.786c0,4.753-3.852,8.601-8.599,8.601c-4.752,0-8.602-3.848-8.602-8.601v-25.859c0-4.746,3.85-8.598,8.602-8.598
	c4.747,0,8.599,3.852,8.599,8.598V155.786z M145.519,115.754c-4.752,0-8.602-3.848-8.602-8.596c0-4.752,3.85-8.603,8.602-8.603
	c4.747,0,8.599,3.851,8.599,8.603C154.117,111.907,150.266,115.754,145.519,115.754z M145.519,89.898
	c-4.752,0-8.602-3.848-8.602-8.601c0-4.748,3.85-8.598,8.602-8.598c4.747,0,8.599,3.85,8.599,8.598
	C154.117,86.05,150.266,89.898,145.519,89.898z M145.519,64.042c-4.752,0-8.602-3.848-8.602-8.602c0-4.748,3.85-8.598,8.602-8.598
	c4.747,0,8.599,3.85,8.599,8.598C154.117,60.194,150.266,64.042,145.519,64.042z M178.838,29.583c0,4.754-3.852,8.601-8.601,8.601
	s-8.601-3.847-8.601-8.601H178.838z M170.237,98.556c4.749,0,8.601,3.851,8.601,8.603c0,4.748-3.852,8.596-8.601,8.596
	s-8.601-3.848-8.601-8.596C161.637,102.407,165.488,98.556,170.237,98.556z M161.637,81.297c0-4.748,3.852-8.598,8.601-8.598
	s8.601,3.85,8.601,8.598c0,4.753-3.852,8.601-8.601,8.601S161.637,86.05,161.637,81.297z M170.237,121.329
	c4.749,0,8.601,3.852,8.601,8.598c0,4.753-3.852,8.603-8.601,8.603s-8.601-3.85-8.601-8.603
	C161.637,125.18,165.488,121.329,170.237,121.329z M178.838,155.786c0,4.753-3.852,8.601-8.601,8.601s-8.601-3.848-8.601-8.601
	H178.838z M170.237,225.818c4.749,0,8.601,3.851,8.601,8.598c0,4.751-3.852,8.601-8.601,8.601s-8.601-3.85-8.601-8.601
	C161.637,229.668,165.488,225.818,170.237,225.818z M161.637,207.5c0-4.748,3.852-8.597,8.601-8.597s8.601,3.849,8.601,8.597
	c0,4.754-3.852,8.602-8.601,8.602S161.637,212.253,161.637,207.5z M178.838,260.272c0,4.755-3.852,8.602-8.601,8.602
	s-8.601-3.847-8.601-8.602H178.838z M170.237,395.078c-4.749,0-8.601-3.847-8.601-8.6h17.201
	C178.838,391.231,174.986,395.078,170.237,395.078z M170.237,369.221c-4.749,0-8.601-3.851-8.601-8.603
	c0-4.746,3.852-8.599,8.601-8.599s8.601,3.853,8.601,8.599C178.838,365.371,174.986,369.221,170.237,369.221z M170.237,346.446
	c-4.749,0-8.601-3.848-8.601-8.596c0-4.752,3.852-8.603,8.601-8.603s8.601,3.851,8.601,8.603
	C178.838,342.598,174.986,346.446,170.237,346.446z M170.237,320.59c-4.749,0-8.601-3.849-8.601-8.602
	c0-4.749,3.852-8.599,8.601-8.599s8.601,3.85,8.601,8.599C178.838,316.742,174.986,320.59,170.237,320.59z M194.317,395.078
	c-4.751,0-8.601-3.847-8.601-8.6c0-4.751,3.85-8.599,8.601-8.599c4.749,0,8.599,3.848,8.599,8.599
	C202.916,391.231,199.066,395.078,194.317,395.078z M185.717,360.619c0-4.746,3.85-8.599,8.601-8.599v17.201
	C189.566,369.221,185.717,365.371,185.717,360.619z M185.717,337.85c0-4.752,3.85-8.603,8.601-8.603
	c4.749,0,8.599,3.851,8.599,8.603H185.717z M194.317,320.59c-4.751,0-8.601-3.849-8.601-8.602c0-4.749,3.85-8.599,8.601-8.599
	c4.749,0,8.599,3.85,8.599,8.599C202.916,316.742,199.066,320.59,194.317,320.59z M194.317,294.732h-24.08
	c-4.749,0-8.601-3.848-8.601-8.6c0-4.75,3.852-8.599,8.601-8.599h24.08c4.749,0,8.599,3.849,8.599,8.599
	C202.916,290.884,199.066,294.732,194.317,294.732z M194.317,268.874c-4.751,0-8.601-3.847-8.601-8.602
	c0-4.747,3.85-8.598,8.601-8.598c4.749,0,8.599,3.851,8.599,8.598C202.916,265.027,199.066,268.874,194.317,268.874z
	 M185.717,234.416c0-4.747,3.85-8.598,8.601-8.598v17.198C189.566,243.016,185.717,239.167,185.717,234.416z M194.317,216.101
	c-4.751,0-8.601-3.848-8.601-8.602c0-4.748,3.85-8.597,8.601-8.597c4.749,0,8.599,3.849,8.599,8.597
	C202.916,212.253,199.066,216.101,194.317,216.101z M194.317,190.245h-24.08c-4.749,0-8.601-3.851-8.601-8.602
	c0-4.747,3.852-8.598,8.601-8.598h24.08c4.749,0,8.599,3.851,8.599,8.598C202.916,186.394,199.066,190.245,194.317,190.245z
	 M194.317,164.386c-4.751,0-8.601-3.848-8.601-8.601c0-4.75,3.85-8.598,8.601-8.598c4.749,0,8.599,3.848,8.599,8.598
	C202.916,160.539,199.066,164.386,194.317,164.386z M185.717,129.926c0-4.746,3.85-8.598,8.601-8.598v17.2
	C189.566,138.529,185.717,134.679,185.717,129.926z M185.717,107.159c0-4.752,3.85-8.603,8.601-8.603
	c4.749,0,8.599,3.851,8.599,8.603H185.717z M194.317,89.898c-4.751,0-8.601-3.848-8.601-8.601c0-4.748,3.85-8.598,8.601-8.598
	c4.749,0,8.599,3.85,8.599,8.598C202.916,86.05,199.066,89.898,194.317,89.898z M194.317,64.042h-24.08
	c-4.749,0-8.601-3.848-8.601-8.602c0-4.748,3.852-8.598,8.601-8.598h24.08c4.749,0,8.599,3.85,8.599,8.598
	C202.916,60.194,199.066,64.042,194.317,64.042z M194.317,38.183c-4.751,0-8.601-3.847-8.601-8.601c0-4.748,3.85-8.599,8.601-8.599
	c4.749,0,8.599,3.851,8.599,8.599C202.916,34.336,199.066,38.183,194.317,38.183z M218.396,395.078c-4.749,0-8.599-3.847-8.599-8.6
	c0-4.751,3.85-8.599,8.599-8.599s8.6,3.848,8.6,8.599C226.995,391.231,223.145,395.078,218.396,395.078z M218.396,369.221
	c-4.749,0-8.599-3.851-8.599-8.603c0-4.746,3.85-8.599,8.599-8.599s8.6,3.853,8.6,8.599
	C226.995,365.371,223.145,369.221,218.396,369.221z M218.396,346.446c-4.749,0-8.599-3.848-8.599-8.596
	c0-4.752,3.85-8.603,8.599-8.603s8.6,3.851,8.6,8.603C226.995,342.598,223.145,346.446,218.396,346.446z M218.396,320.59v-17.2
	c4.749,0,8.6,3.85,8.6,8.599C226.995,316.742,223.145,320.59,218.396,320.59z M218.396,294.732c-4.749,0-8.599-3.848-8.599-8.6
	c0-4.75,3.85-8.599,8.599-8.599s8.6,3.849,8.6,8.599C226.995,290.884,223.145,294.732,218.396,294.732z M218.396,268.874
	c-4.749,0-8.599-3.847-8.599-8.602c0-4.747,3.85-8.598,8.599-8.598s8.6,3.851,8.6,8.598
	C226.995,265.027,223.145,268.874,218.396,268.874z M218.396,243.016c-4.749,0-8.599-3.85-8.599-8.601
	c0-4.747,3.85-8.598,8.599-8.598s8.6,3.851,8.6,8.598C226.995,239.167,223.145,243.016,218.396,243.016z M218.396,216.101v-17.198
	c4.749,0,8.6,3.849,8.6,8.597C226.995,212.253,223.145,216.101,218.396,216.101z M218.396,190.245c-4.749,0-8.599-3.851-8.599-8.602
	c0-4.747,3.85-8.598,8.599-8.598s8.6,3.851,8.6,8.598C226.995,186.394,223.145,190.245,218.396,190.245z M218.396,164.386
	c-4.749,0-8.599-3.848-8.599-8.601c0-4.75,3.85-8.598,8.599-8.598s8.6,3.848,8.6,8.598
	C226.995,160.539,223.145,164.386,218.396,164.386z M218.396,138.529c-4.749,0-8.599-3.85-8.599-8.603
	c0-4.746,3.85-8.598,8.599-8.598s8.6,3.852,8.6,8.598C226.995,134.679,223.145,138.529,218.396,138.529z M218.396,115.754
	c-4.749,0-8.599-3.848-8.599-8.596c0-4.752,3.85-8.603,8.599-8.603s8.6,3.851,8.6,8.603
	C226.995,111.907,223.145,115.754,218.396,115.754z M218.396,89.898V72.7c4.749,0,8.6,3.85,8.6,8.598
	C226.995,86.05,223.145,89.898,218.396,89.898z M218.396,64.042c-4.749,0-8.599-3.848-8.599-8.602c0-4.748,3.85-8.598,8.599-8.598
	s8.6,3.85,8.6,8.598C226.995,60.194,223.145,64.042,218.396,64.042z M218.396,38.183c-4.749,0-8.599-3.847-8.599-8.601
	c0-4.748,3.85-8.599,8.599-8.599s8.6,3.851,8.6,8.599C226.995,34.336,223.145,38.183,218.396,38.183z M242.478,395.078
	c-4.751,0-8.602-3.847-8.602-8.6c0-4.751,3.851-8.599,8.602-8.599c4.749,0,8.6,3.848,8.6,8.599
	C251.077,391.231,247.227,395.078,242.478,395.078z M242.478,369.221c-4.751,0-8.602-3.851-8.602-8.603
	c0-4.746,3.851-8.599,8.602-8.599c4.749,0,8.6,3.853,8.6,8.599C251.077,365.371,247.227,369.221,242.478,369.221z M242.478,346.446
	c-4.751,0-8.602-3.848-8.602-8.596c0-4.752,3.851-8.603,8.602-8.603c4.749,0,8.6,3.851,8.6,8.603
	C251.077,342.598,247.227,346.446,242.478,346.446z M242.478,320.59c-4.751,0-8.602-3.849-8.602-8.602
	c0-4.749,3.851-8.599,8.602-8.599c4.749,0,8.6,3.85,8.6,8.599C251.077,316.742,247.227,320.59,242.478,320.59z M242.478,294.732
	c-4.751,0-8.602-3.848-8.602-8.6c0-4.75,3.851-8.599,8.602-8.599c4.749,0,8.6,3.849,8.6,8.599
	C251.077,290.884,247.227,294.732,242.478,294.732z M242.478,268.874c-4.751,0-8.602-3.847-8.602-8.602h17.201
	C251.077,265.027,247.227,268.874,242.478,268.874z M233.876,234.416c0-4.747,3.851-8.598,8.602-8.598c4.749,0,8.6,3.851,8.6,8.598
	H233.876z M242.478,216.101c-4.751,0-8.602-3.848-8.602-8.602c0-4.748,3.851-8.597,8.602-8.597c4.749,0,8.6,3.849,8.6,8.597
	C251.077,212.253,247.227,216.101,242.478,216.101z M242.478,190.245c-4.751,0-8.602-3.851-8.602-8.602
	c0-4.747,3.851-8.598,8.602-8.598c4.749,0,8.6,3.851,8.6,8.598C251.077,186.394,247.227,190.245,242.478,190.245z M242.478,164.386
	c-4.751,0-8.602-3.848-8.602-8.601c0-4.75,3.851-8.598,8.602-8.598c4.749,0,8.6,3.848,8.6,8.598
	C251.077,160.539,247.227,164.386,242.478,164.386z M242.478,138.529c-4.751,0-8.602-3.85-8.602-8.603
	c0-4.746,3.851-8.598,8.602-8.598c4.749,0,8.6,3.852,8.6,8.598C251.077,134.679,247.227,138.529,242.478,138.529z M242.478,115.754
	c-4.751,0-8.602-3.848-8.602-8.596c0-4.752,3.851-8.603,8.602-8.603c4.749,0,8.6,3.851,8.6,8.603
	C251.077,111.907,247.227,115.754,242.478,115.754z M242.478,89.898c-4.751,0-8.602-3.848-8.602-8.601
	c0-4.748,3.851-8.598,8.602-8.598c4.749,0,8.6,3.85,8.6,8.598C251.077,86.05,247.227,89.898,242.478,89.898z M242.478,64.042
	c-4.751,0-8.602-3.848-8.602-8.602c0-4.748,3.851-8.598,8.602-8.598c4.749,0,8.6,3.85,8.6,8.598
	C251.077,60.194,247.227,64.042,242.478,64.042z M242.478,38.183c-4.751,0-8.602-3.847-8.602-8.601h17.201
	C251.077,34.336,247.227,38.183,242.478,38.183z M266.557,395.078c-4.751,0-8.601-3.847-8.601-8.6c0-4.751,3.85-8.599,8.601-8.599
	c4.748,0,8.6,3.848,8.6,8.599C275.156,391.231,271.305,395.078,266.557,395.078z M266.557,369.221c-4.751,0-8.601-3.851-8.601-8.603
	c0-4.746,3.85-8.599,8.601-8.599c4.748,0,8.6,3.853,8.6,8.599C275.156,365.371,271.305,369.221,266.557,369.221z M275.156,337.85
	c0,4.748-3.852,8.596-8.6,8.596c-4.751,0-8.601-3.848-8.601-8.596v-25.861c0-4.749,3.85-8.599,8.601-8.599
	c4.748,0,8.6,3.85,8.6,8.599V337.85z M266.557,294.732c-4.751,0-8.601-3.848-8.601-8.6c0-4.75,3.85-8.599,8.601-8.599
	c4.748,0,8.6,3.849,8.6,8.599C275.156,290.884,271.305,294.732,266.557,294.732z M266.557,268.874c-4.751,0-8.601-3.847-8.601-8.602
	c0-4.747,3.85-8.598,8.601-8.598c4.748,0,8.6,3.851,8.6,8.598C275.156,265.027,271.305,268.874,266.557,268.874z M266.557,243.016
	c-4.751,0-8.601-3.85-8.601-8.601c0-4.747,3.85-8.598,8.601-8.598c4.748,0,8.6,3.851,8.6,8.598
	C275.156,239.167,271.305,243.016,266.557,243.016z M257.956,207.5c0-4.748,3.85-8.597,8.601-8.597c4.748,0,8.6,3.849,8.6,8.597
	H257.956z M266.557,190.245c-4.751,0-8.601-3.851-8.601-8.602c0-4.747,3.85-8.598,8.601-8.598c4.748,0,8.6,3.851,8.6,8.598
	C275.156,186.394,271.305,190.245,266.557,190.245z M266.557,164.386c-4.751,0-8.601-3.848-8.601-8.601
	c0-4.75,3.85-8.598,8.601-8.598c4.748,0,8.6,3.848,8.6,8.598C275.156,160.539,271.305,164.386,266.557,164.386z M266.557,138.529
	c-4.751,0-8.601-3.85-8.601-8.603c0-4.746,3.85-8.598,8.601-8.598c4.748,0,8.6,3.852,8.6,8.598
	C275.156,134.679,271.305,138.529,266.557,138.529z M275.156,107.159c0,4.748-3.852,8.596-8.6,8.596
	c-4.751,0-8.601-3.848-8.601-8.596V81.297c0-4.748,3.85-8.598,8.601-8.598c4.748,0,8.6,3.85,8.6,8.598V107.159z M266.557,64.042
	c-4.751,0-8.601-3.848-8.601-8.602c0-4.748,3.85-8.598,8.601-8.598c4.748,0,8.6,3.85,8.6,8.598
	C275.156,60.194,271.305,64.042,266.557,64.042z M266.557,38.183c-4.751,0-8.601-3.847-8.601-8.601c0-4.748,3.85-8.599,8.601-8.599
	c4.748,0,8.6,3.851,8.6,8.599C275.156,34.336,271.305,38.183,266.557,38.183z M290.636,395.078c-4.749,0-8.6-3.847-8.6-8.6
	c0-4.751,3.851-8.599,8.6-8.599c4.75,0,8.599,3.848,8.599,8.599C299.234,391.231,295.386,395.078,290.636,395.078z M290.636,369.221
	c-4.749,0-8.6-3.851-8.6-8.603c0-4.746,3.851-8.599,8.6-8.599c4.75,0,8.599,3.853,8.599,8.599
	C299.234,365.371,295.386,369.221,290.636,369.221z M290.636,346.446c-4.749,0-8.6-3.848-8.6-8.596c0-4.752,3.851-8.603,8.6-8.603
	c4.75,0,8.599,3.851,8.599,8.603C299.234,342.598,295.386,346.446,290.636,346.446z M290.636,320.59c-4.749,0-8.6-3.849-8.6-8.602
	c0-4.749,3.851-8.599,8.6-8.599c4.75,0,8.599,3.85,8.599,8.599C299.234,316.742,295.386,320.59,290.636,320.59z M282.036,286.132
	c0-4.75,3.851-8.599,8.6-8.599v17.198C285.887,294.732,282.036,290.884,282.036,286.132z M290.636,268.874
	c-4.749,0-8.6-3.847-8.6-8.602c0-4.747,3.851-8.598,8.6-8.598c4.75,0,8.599,3.851,8.599,8.598
	C299.234,265.027,295.386,268.874,290.636,268.874z M282.036,234.416c0-4.747,3.851-8.598,8.6-8.598v17.198
	C285.887,243.016,282.036,239.167,282.036,234.416z M290.636,216.101c-4.749,0-8.6-3.848-8.6-8.602c0-4.748,3.851-8.597,8.6-8.597
	c4.75,0,8.599,3.849,8.599,8.597C299.234,212.253,295.386,216.101,290.636,216.101z M282.036,181.643c0-4.747,3.851-8.598,8.6-8.598
	v17.199C285.887,190.245,282.036,186.394,282.036,181.643z M290.636,164.386c-4.749,0-8.6-3.848-8.6-8.601
	c0-4.75,3.851-8.598,8.6-8.598c4.75,0,8.599,3.848,8.599,8.598C299.234,160.539,295.386,164.386,290.636,164.386z M290.636,138.529
	c-4.749,0-8.6-3.85-8.6-8.603c0-4.746,3.851-8.598,8.6-8.598c4.75,0,8.599,3.852,8.599,8.598
	C299.234,134.679,295.386,138.529,290.636,138.529z M290.636,115.754c-4.749,0-8.6-3.848-8.6-8.596c0-4.752,3.851-8.603,8.6-8.603
	c4.75,0,8.599,3.851,8.599,8.603C299.234,111.907,295.386,115.754,290.636,115.754z M290.636,89.898c-4.749,0-8.6-3.848-8.6-8.601
	c0-4.748,3.851-8.598,8.6-8.598c4.75,0,8.599,3.85,8.599,8.598C299.234,86.05,295.386,89.898,290.636,89.898z M282.036,55.44
	c0-4.748,3.851-8.598,8.6-8.598v17.199C285.887,64.042,282.036,60.194,282.036,55.44z M290.636,38.183c-4.749,0-8.6-3.847-8.6-8.601
	c0-4.748,3.851-8.599,8.6-8.599c4.75,0,8.599,3.851,8.599,8.599C299.234,34.336,295.386,38.183,290.636,38.183z M340.279,72.7
	c4.752,0,8.602,3.85,8.602,8.598c0,4.753-3.85,8.601-8.602,8.601c-4.748,0-8.599-3.848-8.599-8.601
	C331.681,76.549,335.531,72.7,340.279,72.7z M340.279,98.556c4.752,0,8.602,3.851,8.602,8.603c0,4.748-3.85,8.596-8.602,8.596
	c-4.748,0-8.599-3.848-8.599-8.596C331.681,102.407,335.531,98.556,340.279,98.556z M340.279,121.329
	c4.752,0,8.602,3.852,8.602,8.598c0,4.753-3.85,8.603-8.602,8.603c-4.748,0-8.599-3.85-8.599-8.603
	C331.681,125.18,335.531,121.329,340.279,121.329z M348.881,155.786c0,4.753-3.85,8.601-8.602,8.601
	c-4.748,0-8.599-3.848-8.599-8.601H348.881z M340.279,225.818c4.752,0,8.602,3.851,8.602,8.598c0,4.751-3.85,8.601-8.602,8.601
	c-4.748,0-8.599-3.85-8.599-8.601C331.681,229.668,335.531,225.818,340.279,225.818z M331.681,207.5
	c0-4.748,3.851-8.597,8.599-8.597c4.752,0,8.602,3.849,8.602,8.597c0,4.754-3.85,8.602-8.602,8.602
	C335.531,216.101,331.681,212.253,331.681,207.5z M348.881,260.272c0,4.755-3.85,8.602-8.602,8.602
	c-4.748,0-8.599-3.847-8.599-8.602H348.881z M314.716,346.446c-4.749,0-8.6-3.848-8.6-8.596c0-4.752,3.851-8.603,8.6-8.603
	c4.748,0,8.601,3.851,8.601,8.603C323.316,342.598,319.464,346.446,314.716,346.446z M314.716,320.59c-4.749,0-8.6-3.849-8.6-8.602
	c0-4.749,3.851-8.599,8.6-8.599c4.748,0,8.601,3.85,8.601,8.599C323.316,316.742,319.464,320.59,314.716,320.59z M314.716,294.732
	c-4.749,0-8.6-3.848-8.6-8.6c0-4.75,3.851-8.599,8.6-8.599c4.748,0,8.601,3.849,8.601,8.599
	C323.316,290.884,319.464,294.732,314.716,294.732z M323.316,260.272c0,4.755-3.853,8.602-8.601,8.602c-4.749,0-8.6-3.847-8.6-8.602
	v-25.856c0-4.747,3.851-8.598,8.6-8.598c4.748,0,8.601,3.851,8.601,8.598V260.272z M314.716,216.101c-4.749,0-8.6-3.848-8.6-8.602
	c0-4.748,3.851-8.597,8.6-8.597c4.748,0,8.601,3.849,8.601,8.597C323.316,212.253,319.464,216.101,314.716,216.101z
	 M314.716,190.245c-4.749,0-8.6-3.851-8.6-8.602c0-4.747,3.851-8.598,8.6-8.598c4.748,0,8.601,3.851,8.601,8.598
	C323.316,186.394,319.464,190.245,314.716,190.245z M323.316,155.786c0,4.753-3.853,8.601-8.601,8.601c-4.749,0-8.6-3.848-8.6-8.601
	v-25.859c0-4.746,3.851-8.598,8.6-8.598c4.748,0,8.601,3.852,8.601,8.598V155.786z M314.716,115.754c-4.749,0-8.6-3.848-8.6-8.596
	c0-4.752,3.851-8.603,8.6-8.603c4.748,0,8.601,3.851,8.601,8.603C323.316,111.907,319.464,115.754,314.716,115.754z M314.716,89.898
	c-4.749,0-8.6-3.848-8.6-8.601c0-4.748,3.851-8.598,8.6-8.598c4.748,0,8.601,3.85,8.601,8.598
	C323.316,86.05,319.464,89.898,314.716,89.898z M314.716,64.042c-4.749,0-8.6-3.848-8.6-8.602c0-4.748,3.851-8.598,8.6-8.598
	c4.748,0,8.601,3.85,8.601,8.598C323.316,60.194,319.464,64.042,314.716,64.042z M340.279,369.221c-4.748,0-8.599-3.851-8.599-8.603
	c0-4.746,3.851-8.599,8.599-8.599c4.752,0,8.602,3.853,8.602,8.599C348.881,365.371,345.031,369.221,340.279,369.221z
	 M340.279,346.446c-4.748,0-8.599-3.848-8.599-8.596c0-4.752,3.851-8.603,8.599-8.603c4.752,0,8.602,3.851,8.602,8.603
	C348.881,342.598,345.031,346.446,340.279,346.446z M340.279,320.59c-4.748,0-8.599-3.849-8.599-8.602
	c0-4.749,3.851-8.599,8.599-8.599c4.752,0,8.602,3.85,8.602,8.599C348.881,316.742,345.031,320.59,340.279,320.59z M355.761,337.85
	c0-4.752,3.852-8.603,8.601-8.603s8.6,3.851,8.6,8.603H355.761z M364.361,320.59c-4.749,0-8.601-3.849-8.601-8.602
	c0-4.749,3.852-8.599,8.601-8.599s8.6,3.85,8.6,8.599C372.961,316.742,369.11,320.59,364.361,320.59z M364.361,294.732h-24.082
	c-4.748,0-8.599-3.848-8.599-8.6c0-4.75,3.851-8.599,8.599-8.599h24.082c4.749,0,8.6,3.849,8.6,8.599
	C372.961,290.884,369.11,294.732,364.361,294.732z M364.361,268.874c-4.749,0-8.601-3.847-8.601-8.602
	c0-4.747,3.852-8.598,8.601-8.598s8.6,3.851,8.6,8.598C372.961,265.027,369.11,268.874,364.361,268.874z M355.761,234.416
	c0-4.747,3.852-8.598,8.601-8.598v17.198C359.612,243.016,355.761,239.167,355.761,234.416z M364.361,216.101
	c-4.749,0-8.601-3.848-8.601-8.602c0-4.748,3.852-8.597,8.601-8.597s8.6,3.849,8.6,8.597
	C372.961,212.253,369.11,216.101,364.361,216.101z M364.361,190.245h-24.082c-4.748,0-8.599-3.851-8.599-8.602
	c0-4.747,3.851-8.598,8.599-8.598h24.082c4.749,0,8.6,3.851,8.6,8.598C372.961,186.394,369.11,190.245,364.361,190.245z
	 M364.361,164.386c-4.749,0-8.601-3.848-8.601-8.601c0-4.75,3.852-8.598,8.601-8.598s8.6,3.848,8.6,8.598
	C372.961,160.539,369.11,164.386,364.361,164.386z M355.761,129.926c0-4.746,3.852-8.598,8.601-8.598v17.2
	C359.612,138.529,355.761,134.679,355.761,129.926z M355.761,107.159c0-4.752,3.852-8.603,8.601-8.603s8.6,3.851,8.6,8.603H355.761z
	 M364.361,89.898c-4.749,0-8.601-3.848-8.601-8.601c0-4.748,3.852-8.598,8.601-8.598s8.6,3.85,8.6,8.598
	C372.961,86.05,369.11,89.898,364.361,89.898z M388.44,294.732c-4.75,0-8.6-3.848-8.6-8.6c0-4.75,3.85-8.599,8.6-8.599
	c4.748,0,8.6,3.849,8.6,8.599C397.04,290.884,393.188,294.732,388.44,294.732z M388.44,268.874c-4.75,0-8.6-3.847-8.6-8.602
	c0-4.747,3.85-8.598,8.6-8.598c4.748,0,8.6,3.851,8.6,8.598C397.04,265.027,393.188,268.874,388.44,268.874z M388.44,243.016
	c-4.75,0-8.6-3.85-8.6-8.601c0-4.747,3.85-8.598,8.6-8.598c4.748,0,8.6,3.851,8.6,8.598
	C397.04,239.167,393.188,243.016,388.44,243.016z M388.44,216.101v-17.198c4.748,0,8.6,3.849,8.6,8.597
	C397.04,212.253,393.188,216.101,388.44,216.101z M388.44,190.245c-4.75,0-8.6-3.851-8.6-8.602c0-4.747,3.85-8.598,8.6-8.598
	c4.748,0,8.6,3.851,8.6,8.598C397.04,186.394,393.188,190.245,388.44,190.245z M388.44,164.386c-4.75,0-8.6-3.848-8.6-8.601
	c0-4.75,3.85-8.598,8.6-8.598c4.748,0,8.6,3.848,8.6,8.598C397.04,160.539,393.188,164.386,388.44,164.386z M388.44,138.529
	c-4.75,0-8.6-3.85-8.6-8.603c0-4.746,3.85-8.598,8.6-8.598c4.748,0,8.6,3.852,8.6,8.598
	C397.04,134.679,393.188,138.529,388.44,138.529z"/>
</svg>
