<?xml version="1.0" encoding="utf-8"?>
<!-- Generator: Adobe Illustrator 16.0.0, SVG Export Plug-In . SVG Version: 6.00 Build 0)  -->
<!DOCTYPE svg PUBLIC "-//W3C//DTD SVG 1.1//EN" "http://www.w3.org/Graphics/SVG/1.1/DTD/svg11.dtd">
<svg version="1.1" id="Calque_1" xmlns="http://www.w3.org/2000/svg" xmlns:xlink="http://www.w3.org/1999/xlink" x="0px" y="0px"
	 width="419.868px" height="419.867px" viewBox="0 0 419.868 419.867" enable-background="new 0 0 419.868 419.867"
	 xml:space="preserve">
<path fill="#E6E6E6" d="M389.898,101.9C330.241,2.505,201.296-29.695,101.905,29.966c-99.396,59.666-131.601,188.611-71.939,288
	c59.671,99.388,188.612,131.602,288.012,71.935C417.367,330.234,449.562,201.291,389.898,101.9z M219.762,349.397
	c-0.302-11.146-30.27-20.155-67.216-20.155c-36.946,0-66.916,9.01-67.216,20.155h-0.014c0-38.485,30.096-69.68,67.23-69.68
	c37.132,0,67.231,31.194,67.231,69.68H219.762z M219.762,273.849c-0.309-13.477-30.274-24.368-67.216-24.368
	c-36.941,0-66.908,10.892-67.215,24.368h-0.015c0-46.534,30.097-84.265,67.23-84.265s67.231,37.731,67.231,84.265H219.762z
	 M219.763,186.227c-0.304-18.538-30.272-33.526-67.217-33.526c-36.943,0-66.91,14.988-67.214,33.526h-0.015
	c0-64.019,30.098-115.924,67.229-115.924c37.133,0,67.232,51.905,67.232,115.924H219.763z M225.733,136.502h-0.014
	c0-35.932,16.088-65.061,35.938-65.061c19.852,0,35.94,29.128,35.94,65.061h-0.014c-0.317-18.351-16.274-33.135-35.927-33.135
	C242.007,103.367,226.051,118.151,225.733,136.502z M334.549,349.267c-0.055-29.449-7.909-53.274-17.595-53.274
	s-17.54,23.825-17.594,53.274c-0.001,0.099-0.003,0.197-0.003,0.3c0-0.103-0.003-0.201-0.003-0.3
	c-0.068-22.844-7.917-41.312-17.593-41.312s-17.524,18.468-17.595,41.312h-0.002c0-84.972,7.879-153.858,17.597-153.858
	c9.719,0,17.596,68.886,17.596,153.858c0-109.395,7.877-198.077,17.597-198.077s17.598,88.683,17.598,198.077H334.549z
	 M334.539,97.439c-0.141-7.331-7.134-13.24-15.755-13.24c-8.619,0-15.61,5.91-15.751,13.24h-0.013
	c0-14.359,7.059-25.998,15.764-25.998c8.707,0,15.769,11.639,15.769,25.998H334.539z"/>
</svg>
