<?xml version="1.0" encoding="utf-8"?>
<!-- Generator: Adobe Illustrator 16.0.0, SVG Export Plug-In . SVG Version: 6.00 Build 0)  -->
<!DOCTYPE svg PUBLIC "-//W3C//DTD SVG 1.1 Tiny//EN" "http://www.w3.org/Graphics/SVG/1.1/DTD/svg11-tiny.dtd">
<svg version="1.1" baseProfile="tiny" id="Calque_1"
	 xmlns="http://www.w3.org/2000/svg" xmlns:xlink="http://www.w3.org/1999/xlink" x="0px" y="0px" width="483.035px"
	 height="141.733px" viewBox="0 0 483.035 141.733" xml:space="preserve">
<g>
	<path d="M67.929,28.519H11.321v7.549h56.608V28.519z M218.874,141.731h60.38v-7.548h-60.38V141.731z M75.476,70.031h7.548V28.519
		h-7.548V70.031z M203.781,141.731h7.548V100.22h-7.548V141.731z M366.05,28.519h-56.604v7.549h56.604V28.519z M392.468,36.068
		h37.737v-7.549h-37.737V36.068z M437.751,28.519v113.214h7.548V36.068h37.736v-7.549H437.751z M373.596,70.031h7.551V28.522h-7.551
		V70.031z M94.345,141.728h7.548V28.519h-7.548V141.728z M184.91,141.728h7.549V28.519h-7.549V141.728z M298.123,100.223
		c0,22.923,18.584,41.509,41.51,41.509c22.927-0.001,41.513-18.586,41.51-41.51c0.001-22.929-18.584-41.511-41.509-41.513
		C316.709,58.711,298.125,77.295,298.123,100.223 M339.635,141.723l-41.505-41.505l41.503-41.501l41.502,41.501L339.635,141.723z
		 M245.316,28.51c-22.925,0-41.509,18.584-41.509,41.51c0,22.925,18.584,41.51,41.509,41.511c22.927,0,41.509-18.584,41.509-41.51
		C286.825,47.096,268.243,28.51,245.316,28.51 M215.969,99.368l0.004-58.69l58.688-0.002l0.002,58.692H215.969z M109.395,32.192
		l61.34,109.474l6.582-3.692L115.978,28.502L109.395,32.192z M41.51,58.709C18.586,58.709,0,77.293,0,100.22
		c0,22.926,18.586,41.511,41.51,41.511c22.927,0,41.511-18.585,41.511-41.511C83.021,77.293,64.437,58.709,41.51,58.709
		 M70.859,129.565H12.163l0.004-58.691l58.692-0.002V129.565z M274.875,7.428L273.532,0l-57.686,10.414l1.341,7.43L274.875,7.428z"
		/>
</g>
</svg>
