<?xml version="1.0" encoding="utf-8"?>
<!-- Generator: Adobe Illustrator 15.0.0, SVG Export Plug-In . SVG Version: 6.00 Build 0)  -->
<!DOCTYPE svg PUBLIC "-//W3C//DTD SVG 1.1//EN" "http://www.w3.org/Graphics/SVG/1.1/DTD/svg11.dtd">
<svg version="1.1" id="Calque_1" xmlns="http://www.w3.org/2000/svg" xmlns:xlink="http://www.w3.org/1999/xlink" x="0px" y="0px"
	 width="252.41px" height="231.342px" viewBox="0 0 252.41 231.342" enable-background="new 0 0 252.41 231.342"
	 xml:space="preserve">
<g>
	<g>
		<defs>
			<rect id="SVGID_1_" x="1.26" width="251.15" height="73.693"/>
		</defs>
		<clipPath id="SVGID_2_">
			<use xlink:href="#SVGID_1_"  overflow="visible"/>
		</clipPath>
		<path clip-path="url(#SVGID_2_)" d="M36.579,14.828H7.146v3.925h29.433V14.828z M115.062,73.692h31.394v-3.925h-31.394V73.692z
			 M40.502,36.412h3.925V14.828h-3.925V36.412z M107.213,73.692h3.925V52.109h-3.925V73.692z M191.584,14.828h-29.431v3.925h29.431
			V14.828z M205.319,18.753h19.621v-3.925h-19.621V18.753z M228.864,14.828v58.865h3.925v-54.94h19.621v-3.925H228.864z
			 M195.508,36.412h3.926V14.83h-3.926V36.412z M50.313,73.69h3.925V14.828h-3.925V73.69z M97.402,73.69h3.925V14.828h-3.925V73.69z
			 M156.267,52.11c0,11.919,9.662,21.582,21.582,21.582c11.921,0,21.585-9.663,21.583-21.583
			c0.001-11.921-9.663-21.583-21.582-21.584C165.93,30.526,156.268,40.189,156.267,52.11 M177.85,73.688l-21.58-21.58l21.579-21.578
			l21.579,21.578L177.85,73.688z M128.81,14.823c-11.92,0-21.582,9.663-21.582,21.583s9.662,21.583,21.582,21.583
			c11.921,0,21.582-9.662,21.582-21.582S140.73,14.823,128.81,14.823 M113.55,51.665l0.002-30.515l30.515-0.002l0.001,30.517H113.55
			z M58.139,16.738l31.893,56.92l3.423-1.92L61.562,14.819L58.139,16.738z M22.842,30.525c-11.919,0-21.583,9.663-21.583,21.583
			c0,11.921,9.664,21.584,21.583,21.584c11.921,0,21.583-9.663,21.583-21.584C44.425,40.188,34.764,30.525,22.842,30.525
			 M38.103,67.366H7.583l0.002-30.516l30.517-0.001V67.366z M144.179,3.862L143.48,0l-29.994,5.415l0.698,3.863L144.179,3.862z"/>
	</g>
	<text transform="matrix(1 0 0 1 78.02 102.9971)" font-family="'Cardone-Regular'" font-size="12">Nationale des Écoles d’Art</text>
	<text transform="matrix(-6.123234e-17 1 -1 -6.123234e-17 223.7939 135.5352)" font-family="'Cardone-Regular'" font-size="12">Territoriales de</text>
	<text transform="matrix(1 0 0 1 1.2598 227.2256)" font-family="'Cardone-Regular'" font-size="12">Pratiques Amateurs</text>
	<text transform="matrix(-6.123234e-17 -1 1 -6.123234e-17 10.2598 162.541)" font-family="'Cardone-Regular'" font-size="12">Association</text>
</g>
</svg>
