<?xml version="1.0" encoding="utf-8"?>
<!-- Generator: Adobe Illustrator 16.0.0, SVG Export Plug-In . SVG Version: 6.00 Build 0)  -->
<!DOCTYPE svg PUBLIC "-//W3C//DTD SVG 1.1//EN" "http://www.w3.org/Graphics/SVG/1.1/DTD/svg11.dtd">
<svg version="1.1" id="Calque_1" xmlns="http://www.w3.org/2000/svg" xmlns:xlink="http://www.w3.org/1999/xlink" x="0px" y="0px"
	 width="419.867px" height="419.859px" viewBox="0 0 419.867 419.859" enable-background="new 0 0 419.867 419.859"
	 xml:space="preserve">
<path fill="#FFFFFF" d="M358.379,358.375c81.987-81.99,81.982-214.908,0-296.887C276.394-20.491,143.47-20.498,61.492,61.482
	c-81.988,81.984-81.988,214.902,0,296.886C143.475,440.355,276.394,440.355,358.379,358.375"/>
<g>
	<path fill="#FF472B" d="M129.245,89.624l-13.741-22.086l60.397-37.581l13.745,22.084L129.245,89.624z M183.533,76.108l7.099-25.028
		l68.438,19.402l-7.104,25.025L183.533,76.108z M136.825,234.806l-25.756-3.645l9.957-70.428l25.758,3.638L136.825,234.806z
		 M154.759,311.08l-25.752-3.645l9.96-70.428l25.755,3.635L154.759,311.08z M389.282,242.044l-25.754-3.648l9.96-70.428
		l25.756,3.638L389.282,242.044z M88.365,297.177l-25.691,4.047L34.797,154.386l25.695-4.061L88.365,297.177z M170.387,150.646
		l-21.66,14.391l-39.375-59.23l21.653-14.402L170.387,150.646z M358.293,263.232l-98.026-18.383l4.912-25.541l98.02,18.375
		L358.293,263.232z M371.128,134.1l-127.79-13.256l2.686-25.867l127.782,13.249L371.128,134.1z M244.393,315.269l8.573,24.557
		l-121.293,42.338l-8.57-24.557L244.393,315.269z M325.852,355.173l-22.438,13.166l-65.018-110.803l22.428-13.166L325.852,355.173z"
		/>
</g>
</svg>
