<?xml version="1.0" encoding="utf-8"?>
<!-- Generator: Adobe Illustrator 16.0.0, SVG Export Plug-In . SVG Version: 6.00 Build 0)  -->
<!DOCTYPE svg PUBLIC "-//W3C//DTD SVG 1.1 Tiny//EN" "http://www.w3.org/Graphics/SVG/1.1/DTD/svg11-tiny.dtd">
<svg version="1.1" baseProfile="tiny" id="Calque_1"
	 xmlns="http://www.w3.org/2000/svg" xmlns:xlink="http://www.w3.org/1999/xlink" x="0px" y="0px" width="419.867px"
	 height="419.859px" viewBox="0 0 419.867 419.859" xml:space="preserve">
<path fill="#E6E6E6" d="M358.379,61.487C276.394-20.491,143.47-20.498,61.492,61.482c-81.988,81.984-81.988,214.902,0,296.886
	c81.982,81.986,214.901,81.986,296.887,0.006C440.366,276.384,440.361,143.467,358.379,61.487z M373.806,108.226l-2.678,25.874
	l-127.79-13.256l2.686-25.867L373.806,108.226z M259.07,70.482l-7.104,25.025l-68.433-19.399l7.099-25.028L259.07,70.482z
	 M175.901,29.957l13.745,22.084l-60.401,37.583l-13.741-22.086L175.901,29.957z M62.674,301.224L34.797,154.386l25.695-4.061
	l27.873,146.852L62.674,301.224z M131.005,91.403l39.382,59.242l-21.66,14.391l-39.375-59.23L131.005,91.403z M164.722,240.642
	l-9.963,70.438l-25.752-3.645l9.96-70.428L164.722,240.642z M121.026,160.733l25.758,3.638l-9.959,70.435l-25.756-3.645
	L121.026,160.733z M131.673,382.164l-8.57-24.557l121.29-42.338l8.573,24.557L131.673,382.164z M358.293,263.232l-97.085-18.206
	l64.644,110.147l-22.438,13.166l-65.018-110.803l21.904-12.858l4.879-25.37l98.02,18.375L358.293,263.232z M363.528,238.396
	l9.96-70.428l25.756,3.638l-9.962,70.439L363.528,238.396z"/>
</svg>
